<svg xmlns="http://www.w3.org/2000/svg" width="10.206" height="8.931" viewBox="0 0 10.206 8.931">
  <g id="arrow-right-short" transform="translate(-9 -10.124)">
    <path id="Caminho_187" data-name="Caminho 187" d="M18.186,10.311a.638.638,0,0,1,.9,0l3.827,3.827a.638.638,0,0,1,0,.9l-3.827,3.827a.639.639,0,0,1-.9-.9l3.376-3.375-3.376-3.375a.638.638,0,0,1,0-.9Z" transform="translate(-3.897 0)" fill="#313131" fill-rule="evenodd"/>
    <path id="Caminho_188" data-name="Caminho 188" d="M9,17.513a.638.638,0,0,1,.638-.638h8.291a.638.638,0,1,1,0,1.276H9.638A.638.638,0,0,1,9,17.513Z" transform="translate(0 -2.924)" fill="#313131" fill-rule="evenodd"/>
  </g>
</svg>
