<svg id="artigos-de-higiene-pessoal" xmlns="http://www.w3.org/2000/svg" xmlns:xlink="http://www.w3.org/1999/xlink" width="32" height="32" viewBox="0 0 32 32">
  <defs>
    <linearGradient id="linear-gradient" x1="1.307" y1="1" x2="-0.145" y2="-0.968" gradientUnits="objectBoundingBox">
      <stop offset="0" stop-color="#2cbf88"/>
      <stop offset="0.642" stop-color="#b9e33f"/>
      <stop offset="1" stop-color="#b9e33f"/>
      <stop offset="1" stop-color="#2cbf88"/>
      <stop offset="1"/>
    </linearGradient>
  </defs>
  <path id="Caminho_109" data-name="Caminho 109" d="M45.333,25.6H44.8v-.533a1.6,1.6,0,0,0-1.067-1.508V21.867a.533.533,0,0,0-.533-.533V19.2h2.133a1.6,1.6,0,0,0,0-3.2H40a1.6,1.6,0,0,0-1.6,1.6v1.067a.533.533,0,0,0,.533.533H40v2.133a.533.533,0,0,0-.533.533v1.692A1.6,1.6,0,0,0,38.4,25.067V25.6h-.533A2.67,2.67,0,0,0,35.2,28.267v1.6H32v-6.4h2.667a.533.533,0,0,0,.533-.533v-6.4A.533.533,0,0,0,34.666,16H30.4a1.6,1.6,0,0,0-1.6,1.6V29.867H26.213l.453-10.644a.533.533,0,0,0-.533-.556h-9.6a.533.533,0,0,0-.533.556l1.066,25.055v3.189A.533.533,0,0,0,17.6,48H45.333A2.67,2.67,0,0,0,48,45.333V28.267A2.67,2.67,0,0,0,45.333,25.6Zm-2.667-3.2v1.067H40.533V22.4Zm-3.2-4.8A.534.534,0,0,1,40,17.067h5.333a.533.533,0,0,1,0,1.067H39.466Zm1.6,1.6h1.067v2.133H41.066Zm-1.6,5.867A.534.534,0,0,1,40,24.533h3.2a.534.534,0,0,1,.533.533V25.6H39.466ZM40,42.133a1.6,1.6,0,0,1-1.6,1.6H29.866a1.6,1.6,0,0,1-1.6-1.6v-3.2a1.6,1.6,0,0,1,1.6-1.6H38.4a1.6,1.6,0,0,1,1.6,1.6Zm-4.8-5.867H29.866A2.67,2.67,0,0,0,27.2,38.933v3.2a2.653,2.653,0,0,0,.535,1.6h-1.6a.533.533,0,0,0-.533.533v1.067a2.653,2.653,0,0,0,.535,1.6h-1.6V46.4a.533.533,0,1,0-1.067,0v.533H21.333v-16h2.133v.533a.533.533,0,0,0,1.067,0v-.533H35.2ZM34.133,18.133a.533.533,0,1,0,0,1.067v1.067a.533.533,0,0,0,0,1.067V22.4H32.975a1.593,1.593,0,0,0,.092-.533V17.6a1.593,1.593,0,0,0-.092-.533h1.158ZM29.866,17.6a.534.534,0,0,1,.533-.533h1.067A.534.534,0,0,1,32,17.6v4.267a.534.534,0,0,1-.533.533h-1.6Zm0,5.867h1.067v6.4H29.866Zm-9.067,6.4a.533.533,0,0,0-.533.533V43.733H18.111L17.18,21.867h8.305l-.34,8Zm4.777-10.133L25.531,20.8h-8.4l-.045-1.067ZM18.133,44.8h2.133v2.133H18.133Zm10.133,2.133a1.6,1.6,0,0,1-1.6-1.6V44.8H41.6v.533a1.6,1.6,0,0,1-1.6,1.6Zm18.667-1.6a1.6,1.6,0,0,1-1.6,1.6h-3.2a2.653,2.653,0,0,0,.535-1.6V44.267a.533.533,0,0,0-.533-.533h-1.6a2.652,2.652,0,0,0,.535-1.6v-3.2A2.67,2.67,0,0,0,38.4,36.267H36.266v-8a1.6,1.6,0,0,1,1.6-1.6h7.467a1.6,1.6,0,0,1,1.6,1.6Z" transform="translate(-16 -16)" fill="url(#linear-gradient)"/>
  <path id="Caminho_110" data-name="Caminho 110" d="M348.505,200c-2.526,0-4.505,1.414-4.505,3.218s1.979,3.218,4.505,3.218,4.505-1.414,4.505-3.218S351.031,200,348.505,200Zm0,5.149c-1.744,0-3.218-.884-3.218-1.931s1.474-1.931,3.218-1.931,3.218.884,3.218,1.931S350.25,205.149,348.505,205.149Z" transform="translate(-324.228 -188.241)" fill="url(#linear-gradient)"/>
  <path id="Caminho_111" data-name="Caminho 111" d="M128.644,272a.644.644,0,0,0-.644.644v1.287a.644.644,0,0,0,1.287,0v-1.287A.644.644,0,0,0,128.644,272Z" transform="translate(-120.587 -255.185)" fill="url(#linear-gradient)"/>
  <path id="Caminho_112" data-name="Caminho 112" d="M128.644,320a.644.644,0,0,0-.644.644v1.287a.644.644,0,0,0,1.287,0v-1.287A.644.644,0,0,0,128.644,320Z" transform="translate(-120.587 -300.033)" fill="url(#linear-gradient)"/>
  <path id="Caminho_113" data-name="Caminho 113" d="M128.644,368a.644.644,0,0,0-.644.643v1.287a.644.644,0,1,0,1.287,0v-1.287A.643.643,0,0,0,128.644,368Z" transform="translate(-120.587 -344.88)" fill="url(#linear-gradient)"/>
  <path id="Caminho_114" data-name="Caminho 114" d="M128.644,416a.644.644,0,0,0-.644.644v1.287a.644.644,0,1,0,1.287,0v-1.287A.644.644,0,0,0,128.644,416Z" transform="translate(-120.587 -390.436)" fill="url(#linear-gradient)"/>
</svg>
