<svg xmlns="http://www.w3.org/2000/svg" xmlns:xlink="http://www.w3.org/1999/xlink" width="32" height="32" viewBox="0 0 32 32">
  <defs>
    <linearGradient id="linear-gradient" x1="-0.299" y1="-0.173" x2="0.5" y2="1" gradientUnits="objectBoundingBox">
      <stop offset="0" stop-color="#b9e33f"/>
      <stop offset="0.312" stop-color="#b9e33f"/>
      <stop offset="1" stop-color="#2cbf88"/>
    </linearGradient>
  </defs>
  <path id="Caminho_170" data-name="Caminho 170" d="M36.155,38.457a1.61,1.61,0,0,0-1.489-2.19h-4.8V34.933A1.867,1.867,0,0,0,28,33.067h-.319a2.007,2.007,0,0,0-3-2.339l-8.443,5.628A.533.533,0,0,0,16,36.8v8.533a.533.533,0,0,0,.533.533h3.733V46.4a1.6,1.6,0,0,0,2.667,1.191,1.606,1.606,0,0,0,2.133,0,1.606,1.606,0,0,0,2.133,0A1.6,1.6,0,0,0,29.867,46.4v-.533h4.267a1.6,1.6,0,0,0,1.509-2.133,1.6,1.6,0,0,0,1.284-2.667A1.606,1.606,0,0,0,36.155,38.457ZM28.8,34.933V37.6a.8.8,0,0,1-1.6,0v-.8a.538.538,0,0,0-.156-.378L25.821,35.2l1.067-1.067H28A.8.8,0,0,1,28.8,34.933Zm-6.933,12a.533.533,0,0,1-.533-.533V44.267a.533.533,0,0,1,1.067,0V46.4A.533.533,0,0,1,21.867,46.933Zm2.133,0a.533.533,0,0,1-.533-.533V43.2a.533.533,0,0,1,1.067,0v3.2A.533.533,0,0,1,24,46.933Zm2.133,0A.533.533,0,0,1,25.6,46.4V43.2a.533.533,0,0,1,1.067,0v3.2A.533.533,0,0,1,26.133,46.933ZM28.8,46.4a.533.533,0,0,1-1.067,0V44.267a.533.533,0,0,1,1.067,0Zm7.311-6.023a.533.533,0,0,1-.378.157h-4.8a.533.533,0,0,0,0,1.067h4.8a.533.533,0,0,1,0,1.067h-4.8a.533.533,0,0,0,0,1.067h3.2a.533.533,0,1,1,0,1.067H29.867v-.533a1.608,1.608,0,0,0-2.19-1.487,1.6,1.6,0,0,0-2.61-.771,1.6,1.6,0,0,0-2.61.771,1.608,1.608,0,0,0-2.19,1.487V44.8h-3.2V37.085l8.205-5.467a.937.937,0,0,1,1.182,1.443l-.165.165-1.6,1.6a.533.533,0,0,0,0,.755l1.444,1.44V37.6A1.867,1.867,0,0,0,28,39.467a1.9,1.9,0,0,0,1.867-2.133h4.8a.533.533,0,0,1,0,1.067H30.933a.533.533,0,0,0,0,1.067h4.8a.536.536,0,0,1,.378.91ZM45.867,23.52V21.867a.533.533,0,0,0-.533-.533v-4.8A.533.533,0,0,0,44.8,16H41.6a.533.533,0,0,0-.533.533v.533H35.2a.533.533,0,0,0-.377.156l-2.667,2.667a.533.533,0,0,0,0,.755l1.6,1.6a.533.533,0,0,0,.755,0l1.977-1.977h4.579v1.067a.533.533,0,0,0-.533.533V23.52A2.671,2.671,0,0,0,38.4,26.133V47.467a.533.533,0,0,0,.533.533h8.533A.533.533,0,0,0,48,47.467V26.133a2.671,2.671,0,0,0-2.133-2.613Zm1.067,9.547A2.677,2.677,0,0,0,43.2,33.6a2.678,2.678,0,0,0-3.733-.533v-6.4h7.467Zm0,2.133a1.6,1.6,0,1,1-1.6-1.6A1.6,1.6,0,0,1,46.933,35.2ZM41.6,22.4h3.2v1.067H41.6Zm-5.333-3.2a.533.533,0,0,0-.377.156l-1.756,1.757-.846-.846,2.133-2.133h5.646V19.2Zm5.867.533V17.067h2.133v4.267H42.133Zm-1.067,4.8h4.267A1.6,1.6,0,0,1,46.842,25.6H39.558A1.6,1.6,0,0,1,41.067,24.533Zm-1.6,22.4V35.2a1.6,1.6,0,1,1,3.2,0,2.667,2.667,0,0,0,4.267,2.133v9.6Zm-9.6-17.381a3.02,3.02,0,0,0,4.648-3.811l-2.067-3.1a.533.533,0,0,0-.888,0l-2.067,3.1A3.027,3.027,0,0,0,29.867,29.552Zm.508-3.219L32,23.895l1.625,2.439a1.954,1.954,0,1,1-3.251,0Zm-8.508-1.267a3.2,3.2,0,1,0-3.2-3.2A3.2,3.2,0,0,0,21.867,25.067Zm0-5.333a2.133,2.133,0,1,1-2.133,2.133,2.133,2.133,0,0,1,2.133-2.133ZM41.6,38.933a1.6,1.6,0,1,0,1.6,1.6A1.6,1.6,0,0,0,41.6,38.933Zm0,2.133a.533.533,0,1,1,.533-.533A.533.533,0,0,1,41.6,41.067Zm3.2,3.2a.533.533,0,1,1-.533-.533A.533.533,0,0,1,44.8,44.267Zm-2.667-14.4a.533.533,0,1,1,.533.533A.533.533,0,0,1,42.133,29.867Zm-1.6,5.333a.533.533,0,1,1,.533.533A.533.533,0,0,1,40.533,35.2Z" transform="translate(-16 -16)" fill="url(#linear-gradient)"/>
</svg>
