<svg id="condimentos" xmlns="http://www.w3.org/2000/svg" xmlns:xlink="http://www.w3.org/1999/xlink" width="32" height="32" viewBox="0 0 32 32">
  <defs>
    <linearGradient id="linear-gradient" x1="1.757" y1="2.186" x2="-0.269" y2="-0.208" gradientUnits="objectBoundingBox">
      <stop offset="0" stop-color="#2cbf88"/>
      <stop offset="0.772" stop-color="#93d953"/>
      <stop offset="1" stop-color="#b9e33f"/>
    </linearGradient>
  </defs>
  <path id="Caminho_79" data-name="Caminho 79" d="M0,18.185c0,.007.008.067.022.166a1.741,1.741,0,0,0,.034.216c.3,1.768,1.989,9.249,9.624,12.56A10.829,10.829,0,0,0,14.02,32h3.963a10.829,10.829,0,0,0,4.335-.872c7.606-3.3,9.314-10.735,9.621-12.539.011-.042.013-.085.021-.127.026-.168.037-.267.039-.274a.127.127,0,0,0,0-.019c0-.007,0-.023,0-.035,0-2.3-4.334-3.5-7.1-4.028L31.42,8.717a1.6,1.6,0,0,0,.113-2.365L25.649.467a1.6,1.6,0,0,0-2.365.112L17.133,8.026A1.08,1.08,0,0,0,16.9,8a1.057,1.057,0,0,0-.754.312l-.756.755a1.066,1.066,0,0,0-.258,1.07,3.355,3.355,0,0,0-.073,3.2C7.6,13.47,0,15.145,0,18.132c0,.013,0,.025,0,.037s0,.011,0,.016Zm21.89,11.963a9.768,9.768,0,0,1-3.911.783H14.02a9.768,9.768,0,0,1-3.911-.783A15.408,15.408,0,0,1,1.571,20.3c2.558,1.593,8.14,2.632,14.43,2.632S27.871,21.894,30.43,20.3a15.408,15.408,0,0,1-8.536,9.845Zm9.041-12.032c-.005.043-.017.123-.035.233a1.125,1.125,0,0,1-.151.286c-1.4-1.114-3.977-2.027-7.261-2.579l.2-.2A1.059,1.059,0,0,0,24,15.1c0-.025-.005-.049-.007-.074,4.734.8,6.915,2.146,6.94,3.09ZM15.859,11.042l5.1,5.1c-.945.34-2.478-.213-3.68-1.418S15.521,11.986,15.859,11.042Zm3.433-1.093a31.19,31.19,0,0,0,5.126.46,19.022,19.022,0,0,0,3.685-.337L23.346,14l-2.675-2.674Zm4.816-8.69a.533.533,0,0,1,.789-.037L30.778,7.1a.533.533,0,0,1-.037.788l-.437.361c-4.145,2-10.918.661-12.275.362ZM16.9,9.065,22.934,15.1l-.754.754L16.145,9.82ZM5.181,15.634A41.928,41.928,0,0,1,15.634,14.4a7.263,7.263,0,0,0,.888,1.074,5.691,5.691,0,0,0,3.82,1.833,2.649,2.649,0,0,0,1.485-.419c3.65.466,6.624,1.373,8.113,2.469C27.656,20.852,22.117,21.865,16,21.865c-6.088,0-11.616-1.009-13.928-2.507a5.991,5.991,0,0,1,.568-.373,10.141,10.141,0,0,1,1.2-.583c.452-.187.956-.364,1.5-.528s1.135-.32,1.753-.457,1.29-.267,1.973-.374,1.422-.2,2.164-.279a.533.533,0,1,0-.107-1.061c-.761.077-1.509.174-2.223.287s-1.394.242-2.041.385-1.259.3-1.829.48-1.109.364-1.594.563a11.388,11.388,0,0,0-1.331.645,6.826,6.826,0,0,0-.848.58,1.068,1.068,0,0,1-.156-.3c-.017-.107-.028-.185-.034-.226.019-.657,1.106-1.646,4.112-2.479Zm0,0" transform="translate(-0.001 0.001)" fill="url(#linear-gradient)"/>
  <path id="Caminho_80" data-name="Caminho 80" d="M239.3,257.237a.558.558,0,0,0,.451,0,.569.569,0,0,0,.368-.546.658.658,0,0,0-.012-.113.35.35,0,0,0-.035-.113.477.477,0,0,0-.054-.107l-.071-.089a.621.621,0,0,0-.842,0,.883.883,0,0,0-.071.089.455.455,0,0,0-.054.107.36.36,0,0,0-.036.113.736.736,0,0,0-.012.113.621.621,0,0,0,.172.421A.608.608,0,0,0,239.3,257.237Zm0,0" transform="translate(-224.059 -240.161)" fill="url(#linear-gradient)"/>
  <path id="Caminho_81" data-name="Caminho 81" d="M213.7,274.406a.559.559,0,0,0,.451,0,.57.57,0,0,0,.368-.546.646.646,0,0,0-.012-.112.34.34,0,0,0-.035-.114.487.487,0,0,0-.054-.107l-.071-.089a.621.621,0,0,0-.843,0,.945.945,0,0,0-.071.089.464.464,0,0,0-.053.107.355.355,0,0,0-.036.114.71.71,0,0,0-.012.112.622.622,0,0,0,.172.421A.612.612,0,0,0,213.7,274.406Zm0,0" transform="translate(-200.054 -256.261)" fill="url(#linear-gradient)"/>
  <path id="Caminho_82" data-name="Caminho 82" d="M264.9,274.406a.56.56,0,0,0,.451,0,.569.569,0,0,0,.368-.546.652.652,0,0,0-.012-.112.343.343,0,0,0-.035-.114.5.5,0,0,0-.053-.107l-.071-.089a.621.621,0,0,0-.843,0,.971.971,0,0,0-.071.089.459.459,0,0,0-.053.107.354.354,0,0,0-.036.114.7.7,0,0,0-.012.112.623.623,0,0,0,.172.421A.613.613,0,0,0,264.9,274.406Zm0,0" transform="translate(-248.066 -256.261)" fill="url(#linear-gradient)"/>
  <path id="Caminho_83" data-name="Caminho 83" d="M196.638,299.905a.559.559,0,0,0,.451,0,.57.57,0,0,0,.368-.546.7.7,0,0,0-.012-.113.343.343,0,0,0-.035-.113.474.474,0,0,0-.054-.107l-.071-.089a.621.621,0,0,0-.843,0,.959.959,0,0,0-.071.089.446.446,0,0,0-.054.107.362.362,0,0,0-.036.113.714.714,0,0,0-.012.113.569.569,0,0,0,.368.546Zm0,0" transform="translate(-184.051 -280.172)" fill="url(#linear-gradient)"/>
  <path id="Caminho_84" data-name="Caminho 84" d="M273.242,307.469a.978.978,0,0,0-.071.089.448.448,0,0,0-.054.107.36.36,0,0,0-.036.113.722.722,0,0,0-.012.113.62.62,0,0,0,.172.421.61.61,0,0,0,.2.125.559.559,0,0,0,.451,0,.57.57,0,0,0,.368-.546.675.675,0,0,0-.013-.113.351.351,0,0,0-.035-.113.478.478,0,0,0-.054-.107l-.071-.089A.621.621,0,0,0,273.242,307.469Zm0,0" transform="translate(-256.07 -288.172)" fill="url(#linear-gradient)"/>
  <path id="Caminho_85" data-name="Caminho 85" d="M230.574,316.847a.618.618,0,0,0,.2.125.56.56,0,0,0,.451,0,.57.57,0,0,0,.368-.546.663.663,0,0,0-.012-.113.345.345,0,0,0-.035-.113.486.486,0,0,0-.053-.107l-.071-.089a.621.621,0,0,0-.843,0,.937.937,0,0,0-.071.089.433.433,0,0,0-.053.107.348.348,0,0,0-.036.113.714.714,0,0,0-.012.113A.621.621,0,0,0,230.574,316.847Zm0,0" transform="translate(-216.058 -296.176)" fill="url(#linear-gradient)"/>
  <path id="Caminho_86" data-name="Caminho 86" d="M239.3,291.37a.559.559,0,0,0,.451,0,.569.569,0,0,0,.368-.546.658.658,0,0,0-.012-.113.353.353,0,0,0-.035-.113.474.474,0,0,0-.054-.107l-.071-.089a.621.621,0,0,0-.842,0,.9.9,0,0,0-.071.089.452.452,0,0,0-.054.107.36.36,0,0,0-.036.113.737.737,0,0,0-.012.113.621.621,0,0,0,.172.421A.606.606,0,0,0,239.3,291.37Zm0,0" transform="translate(-224.059 -272.169)" fill="url(#linear-gradient)"/>
</svg>
