<svg xmlns="http://www.w3.org/2000/svg" width="12.908" height="16.837" viewBox="0 0 12.908 16.837">
  <g id="confidentiality" transform="translate(-72 -16)">
    <path id="Caminho_206" data-name="Caminho 206" d="M83.505,32.837a.281.281,0,0,0,.281-.281v-.842h.842a.281.281,0,0,0,.281-.281V18.526a.281.281,0,0,0-.082-.2l-2.245-2.245a.281.281,0,0,0-.2-.082H73.4a.281.281,0,0,0-.281.281v.842h-.842A.281.281,0,0,0,72,17.4V32.556a.281.281,0,0,0,.281.281Zm-.842-15.879,1.287,1.287H82.663Zm-8.98-.4H82.1v1.964a.281.281,0,0,0,.281.281h1.964V31.153H73.684Zm-1.122,1.122h.561v13.75a.281.281,0,0,0,.281.281h9.821v.561H72.561Z" fill="#2cbf88"/>
    <path id="Caminho_207" data-name="Caminho 207" d="M232.281,80.561h2.806a.281.281,0,0,0,0-.561h-2.806a.281.281,0,1,0,0,.561Z" transform="translate(-154.388 -61.755)" fill="#2cbf88"/>
    <path id="Caminho_208" data-name="Caminho 208" d="M184.281,128.561h2.806a.281.281,0,0,0,0-.561h-2.806a.281.281,0,0,0,0,.561Z" transform="translate(-108.071 -108.071)" fill="#2cbf88"/>
    <path id="Caminho_209" data-name="Caminho 209" d="M296,128.281a.281.281,0,0,0,.281.281h2.806a.281.281,0,1,0,0-.561h-2.806A.281.281,0,0,0,296,128.281Z" transform="translate(-216.143 -108.071)" fill="#2cbf88"/>
    <path id="Caminho_210" data-name="Caminho 210" d="M152.281,176.561h1.684a.281.281,0,0,0,0-.561h-1.684a.281.281,0,0,0,0,.561Z" transform="translate(-77.194 -154.388)" fill="#2cbf88"/>
    <path id="Caminho_211" data-name="Caminho 211" d="M155.087,368h-2.806a.281.281,0,1,0,0,.561h2.806a.281.281,0,1,0,0-.561Z" transform="translate(-77.194 -339.653)" fill="#2cbf88"/>
    <path id="Caminho_212" data-name="Caminho 212" d="M152.281,320.561H153.4a.281.281,0,1,0,0-.561h-1.122a.281.281,0,1,0,0,.561Z" transform="translate(-77.194 -293.337)" fill="#2cbf88"/>
    <path id="Caminho_213" data-name="Caminho 213" d="M217.4,320h-1.122a.281.281,0,1,0,0,.561H217.4a.281.281,0,1,0,0-.561Z" transform="translate(-138.949 -293.337)" fill="#2cbf88"/>
    <path id="Caminho_214" data-name="Caminho 214" d="M353.122,224h-.842a.281.281,0,0,0,0,.561h.842a.281.281,0,1,0,0-.561Z" transform="translate(-270.179 -200.704)" fill="#2cbf88"/>
    <path id="Caminho_215" data-name="Caminho 215" d="M237.332,176h-5.051a.281.281,0,1,0,0,.561h5.051a.281.281,0,1,0,0-.561Z" transform="translate(-154.388 -154.388)" fill="#2cbf88"/>
    <path id="Caminho_216" data-name="Caminho 216" d="M156.209,272h-3.929a.281.281,0,0,0,0,.561h3.929a.281.281,0,0,0,0-.561Z" transform="translate(-77.194 -247.02)" fill="#2cbf88"/>
    <path id="Caminho_217" data-name="Caminho 217" d="M152.281,224.561h5.893a.281.281,0,0,0,0-.561h-5.893a.281.281,0,0,0,0,.561Z" transform="translate(-77.194 -200.704)" fill="#2cbf88"/>
    <path id="Caminho_218" data-name="Caminho 218" d="M284.209,266.245v-.281a1.964,1.964,0,0,0-3.929,0v.281a.281.281,0,0,0-.281.281v3.087a.281.281,0,0,0,.281.281h3.929a.281.281,0,0,0,.281-.281v-3.087A.281.281,0,0,0,284.209,266.245Zm-3.367-.281a1.4,1.4,0,1,1,2.806,0v.281h-.561v-.281a.842.842,0,1,0-1.684,0v.281h-.561Zm1.684.281h-.561v-.281a.281.281,0,0,1,.561,0Zm1.4,3.087h-3.367v-2.526h3.367Z" transform="translate(-200.704 -239.301)" fill="#2cbf88"/>
  </g>
</svg>
