<svg id="globe" xmlns="http://www.w3.org/2000/svg" width="16.837" height="16.837" viewBox="0 0 16.837 16.837">
  <path id="Caminho_200" data-name="Caminho 200" d="M1.071,7.892h2.62A14.423,14.423,0,0,1,4.02,5.262H1.761a7.322,7.322,0,0,0-.69,2.631Zm1.3-3.683H4.3a9.751,9.751,0,0,1,.673-1.62,7.05,7.05,0,0,1,.628-.982,7.391,7.391,0,0,0-3.233,2.6ZM8.418,0a8.418,8.418,0,1,0,8.418,8.418A8.418,8.418,0,0,0,8.418,0ZM7.892,1.133A3.7,3.7,0,0,0,5.906,3.085a8.379,8.379,0,0,0-.492,1.124H7.892Zm0,4.128H5.1a13.154,13.154,0,0,0-.356,2.631H7.892ZM8.945,7.892V5.262h2.792a13.1,13.1,0,0,1,.356,2.631ZM7.892,8.945H4.746A13.154,13.154,0,0,0,5.1,11.575H7.892Zm1.052,2.631V8.945h3.147a13.149,13.149,0,0,1-.355,2.631ZM7.892,12.628H5.414a8.353,8.353,0,0,0,.492,1.124A3.71,3.71,0,0,0,7.892,15.7Zm-2.287,2.6a7.045,7.045,0,0,1-.628-.982,9.752,9.752,0,0,1-.673-1.62H2.373a7.391,7.391,0,0,0,3.233,2.6ZM1.761,11.575H4.02a14.365,14.365,0,0,1-.328-2.631H1.071a7.3,7.3,0,0,0,.69,2.631Zm9.47,3.654a7.391,7.391,0,0,0,3.233-2.6h-1.93a9.763,9.763,0,0,1-.674,1.62,7.038,7.038,0,0,1-.628.982Zm.192-2.6H8.945V15.7a3.7,3.7,0,0,0,1.986-1.952,8.4,8.4,0,0,0,.492-1.124Zm1.394-1.052h2.258a7.288,7.288,0,0,0,.69-2.631h-2.62a14.364,14.364,0,0,1-.328,2.631Zm.328-3.683h2.62a7.323,7.323,0,0,0-.69-2.631H12.817A14.464,14.464,0,0,1,13.145,7.892Zm-.613-3.683a9.762,9.762,0,0,0-.673-1.62,7.042,7.042,0,0,0-.628-.982,7.391,7.391,0,0,1,3.233,2.6h-1.93Zm-1.11,0H8.945V1.133A3.7,3.7,0,0,1,10.93,3.085a8.379,8.379,0,0,1,.492,1.124Z" fill="#2cbf88" fill-rule="evenodd"/>
</svg>
