<svg id="google" xmlns="http://www.w3.org/2000/svg" width="27.699" height="27.699" viewBox="0 0 27.699 27.699">
  <path id="Caminho_32" data-name="Caminho 32" d="M6.492,108.643a7.312,7.312,0,0,1,1.035-3.759v-4.669H2.858a13.857,13.857,0,0,0,0,16.856H7.527V112.4A7.312,7.312,0,0,1,6.492,108.643Z" transform="translate(0 -94.793)" fill="#fbbd00"/>
  <path id="Caminho_33" data-name="Caminho 33" d="M199.246,373.991,196,377.237l3.246,3.246a13.745,13.745,0,0,0,8.428-2.858v-4.664H203.01A7.357,7.357,0,0,1,199.246,373.991Z" transform="translate(-185.396 -352.784)" fill="#0f9d58"/>
  <path id="Caminho_34" data-name="Caminho 34" d="M57.492,325.477l-4.669,4.669a14.073,14.073,0,0,0,1.2,1.365,13.759,13.759,0,0,0,9.793,4.056v-6.492A7.361,7.361,0,0,1,57.492,325.477Z" transform="translate(-49.965 -307.869)" fill="#31aa52"/>
  <path id="Caminho_35" data-name="Caminho 35" d="M269.849,200.5a13.973,13.973,0,0,0-.227-2.509l-.122-.665H256v6.492h6.571a7.324,7.324,0,0,1-2.807,3.01l4.664,4.664a14.075,14.075,0,0,0,1.365-1.2A13.759,13.759,0,0,0,269.849,200.5Z" transform="translate(-242.151 -186.649)" fill="#3c79e6"/>
  <path id="Caminho_36" data-name="Caminho 36" d="M204.449,8.647l.574.574,4.59-4.59-.574-.574A13.759,13.759,0,0,0,199.246,0L196,3.246l3.246,3.246A7.31,7.31,0,0,1,204.449,8.647Z" transform="translate(-185.396 0)" fill="#cf2d48"/>
  <path id="Caminho_37" data-name="Caminho 37" d="M63.814,6.492V0a13.759,13.759,0,0,0-9.793,4.056,14.058,14.058,0,0,0-1.2,1.365l4.669,4.669A7.361,7.361,0,0,1,63.814,6.492Z" transform="translate(-49.964 0)" fill="#eb4132"/>
</svg>
