<svg xmlns="http://www.w3.org/2000/svg" xmlns:xlink="http://www.w3.org/1999/xlink" width="36.001" height="32.119" viewBox="0 0 36.001 32.119">
  <defs>
    <linearGradient id="linear-gradient" x1="-0.541" x2="0.5" y2="1" gradientUnits="objectBoundingBox">
      <stop offset="0" stop-color="#b9e33f"/>
      <stop offset="1" stop-color="#2cbf88"/>
    </linearGradient>
  </defs>
  <g id="Grupo_291" data-name="Grupo 291" transform="translate(-189 -1018.611)">
    <g id="Grupo_113" data-name="Grupo 113" transform="translate(-2152 -1604.389)">
      <g id="house" transform="translate(2341 2623)">
        <g id="Grupo_110" data-name="Grupo 110" transform="translate(0 0)">
          <g id="Grupo_109" data-name="Grupo 109" transform="translate(0 0)">
            <path id="Caminho_127" data-name="Caminho 127" d="M35.728,39.878l-6.643-5.673c.008-.039.016-.078.023-.124V26.663a.827.827,0,0,0-.8-.815H24.6a.807.807,0,0,0-.776.815v3.073L18.509,25.2a.776.776,0,0,0-1.009,0L.281,39.871a.777.777,0,0,0,.993,1.2l.016-.016L18,26.818l5.983,5.1,3.577,3.042,7.162,6.1a.775.775,0,0,0,1.094-.085A.783.783,0,0,0,35.728,39.878Zm-8.179-6.984-2.173-1.831V27.408h2.173Z" transform="translate(0 -25.018)" fill="url(#linear-gradient)"/>
          </g>
        </g>
        <g id="Grupo_112" data-name="Grupo 112" transform="translate(3.431 4.454)">
          <g id="Grupo_111" data-name="Grupo 111" transform="translate(0 0)">
            <path id="Caminho_128" data-name="Caminho 128" d="M73.084,94.392,70.9,92.529,59.286,82.6a.776.776,0,0,0-1.009,0L46.661,92.529,44.48,94.392a.775.775,0,0,0-.085,1.094.755.755,0,0,0,1.071.093l.008-.008.97-.838v14.55a.819.819,0,0,0,.8.8h23.07a.813.813,0,0,0,.8-.8V94.733l.97.838a.772.772,0,0,0,.5.186.785.785,0,0,0,.59-.272A.767.767,0,0,0,73.084,94.392Zm-11.2,14.131H55.678v-8.381h6.208Zm1.552,0V99.389a.773.773,0,0,0-.745-.8H54.871a.773.773,0,0,0-.745.8v9.133H48V93.406l10.786-9.188,10.786,9.188v15.116Z" transform="translate(-44.208 -82.418)" fill="url(#linear-gradient)"/>
          </g>
        </g>
      </g>
    </g>
  </g>
</svg>
