<svg xmlns="http://www.w3.org/2000/svg" xmlns:xlink="http://www.w3.org/1999/xlink" width="32" height="32" viewBox="0 0 32 32">
  <defs>
    <linearGradient id="linear-gradient" x1="2.139" x2="-0.145" y2="-0.968" gradientUnits="objectBoundingBox">
      <stop offset="0" stop-color="#2cbf88"/>
      <stop offset="1" stop-color="#b9e33f"/>
      <stop offset="1" stop-color="#2cbf88"/>
      <stop offset="1" stop-color="#b9e33f"/>
      <stop offset="1"/>
    </linearGradient>
  </defs>
  <g id="Grupo_281" data-name="Grupo 281" transform="translate(-66 -615.56)">
    <g id="Grupo_278" data-name="Grupo 278" transform="translate(-119.187 12.505)">
      <path id="Caminho_104" data-name="Caminho 104" d="M11.109,34.731c1.773,0,3.109-.8,3.109-1.866S12.882,31,11.109,31,8,31.8,8,32.866,9.336,34.731,11.109,34.731Zm0-2.487c1.2,0,1.866.467,1.866.622s-.662.622-1.866.622-1.866-.467-1.866-.622S9.905,32.244,11.109,32.244Z" transform="translate(181.541 587.199)" fill="url(#linear-gradient)"/>
      <path id="Caminho_105" data-name="Caminho 105" d="M23.944,51.99l-1.492-1.119a4.471,4.471,0,0,0-5.223,0l-.882.661A3.2,3.2,0,0,0,13.621,50a.622.622,0,0,0-.59.819l.557,1.668-.557,1.669a.621.621,0,0,0,.59.818,3.2,3.2,0,0,0,2.726-1.532l.881.661a4.352,4.352,0,0,0,5.223,0l1.492-1.119a.622.622,0,0,0,0-.995Zm-9.379,1.5.269-.807a.618.618,0,0,0,0-.394l-.269-.807a1.966,1.966,0,0,1,.886,1A1.97,1.97,0,0,1,14.565,53.491Zm7.14-.382a3.191,3.191,0,0,1-3.731,0l-.829-.622.83-.622a3.191,3.191,0,0,1,3.731,0l.829.622Z" transform="translate(177.863 576.97)" fill="url(#linear-gradient)"/>
      <path id="Caminho_106" data-name="Caminho 106" d="M24.226,1c-3.035,0-8.774.539-8.774,2.581V14.61a33.758,33.758,0,0,0-3.613-.191C6.452,14.419,1,15.66,1,18.032V29.387C1,31.759,6.452,33,11.839,33s10.839-1.241,10.839-3.613v-.556c.51.024,1.027.04,1.548.04,3.035,0,8.774-.539,8.774-2.581V3.581C33,1.539,27.261,1,24.226,1Zm0,1.032c5.029,0,7.742,1.1,7.742,1.548s-2.713,1.548-7.742,1.548-7.742-1.1-7.742-1.548S19.2,2.032,24.226,2.032ZM11.839,15.452c6.075,0,9.806,1.5,9.806,2.581s-3.731,2.581-9.806,2.581-9.806-1.5-9.806-2.581S5.763,15.452,11.839,15.452Zm10.839,2.581A1.817,1.817,0,0,0,22.02,16.7a2.029,2.029,0,0,1,.916-.22h.516a2.031,2.031,0,0,1,1.132.343l.26.173a3.074,3.074,0,0,0,3.41,0l.073-.049a4.133,4.133,0,0,1-4.1,3.662,4.083,4.083,0,0,1-1.548-.307Zm5-1.891a2.073,2.073,0,0,1-2.264,0l-.26-.173a3.062,3.062,0,0,0-1.7-.516h-.516a3.064,3.064,0,0,0-1.7.516l-.137.091a7.949,7.949,0,0,0-.911-.414,4.128,4.128,0,0,1,8.1.094ZM4.613,31.067v-7.19a27.748,27.748,0,0,0,7.226.865,27.743,27.743,0,0,0,7.226-.865v7.19a25.531,25.531,0,0,1-7.226.9A25.531,25.531,0,0,1,4.613,31.067ZM20.1,30.7V23.178a.516.516,0,0,0-.682-.489,25.045,25.045,0,0,1-7.576,1.021,25.052,25.052,0,0,1-7.576-1.021.516.516,0,0,0-.467.077.531.531,0,0,0-.216.428v7.5c-1-.427-1.548-.9-1.548-1.309V19.665c1.832,1.3,5.836,1.98,9.806,1.98s7.975-.675,9.806-1.98v9.722c0,.41-.543.882-1.548,1.309Zm4.129-2.857c-.522,0-1.038-.017-1.548-.041V23.67c.51.024,1.027.04,1.548.04,2.24,0,5.95-.295,7.742-1.269v3.85C31.968,26.74,29.254,27.839,24.226,27.839Zm0-5.161c-.522,0-1.038-.017-1.548-.041V21.4A5.159,5.159,0,1,0,19.2,15.315a20.275,20.275,0,0,0-2.718-.573V9.021c1.791.974,5.5,1.269,7.742,1.269s5.95-.295,7.742-1.269V21.129C31.968,21.579,29.254,22.677,24.226,22.677Zm0-13.419c-5.029,0-7.742-1.1-7.742-1.548V4.892c1.791.974,5.5,1.269,7.742,1.269s5.95-.295,7.742-1.269V7.71C31.968,8.159,29.254,9.258,24.226,9.258Z" transform="translate(184.188 602.055)" fill="url(#linear-gradient)"/>
    </g>
  </g>
</svg>
