<svg xmlns="http://www.w3.org/2000/svg" width="31" height="31" viewBox="0 0 31 31">
  <g id="Grupo_649" data-name="Grupo 649" transform="translate(-195 -176.703)">
    <g id="Grupo_634" data-name="Grupo 634">
      <g id="Grupo_630" data-name="Grupo 630">
        <circle id="Elipse_23" data-name="Elipse 23" cx="15.5" cy="15.5" r="15.5" transform="translate(195 176.703)" fill="#b2e8d4"/>
        <path id="Caminho_365" data-name="Caminho 365" d="M2.927,1.615a1.668,1.668,0,0,1,2.5.155l1.714,2.2a1.664,1.664,0,0,1,.3,1.428L6.916,7.5a.649.649,0,0,0,.17.616l2.35,2.349a.649.649,0,0,0,.616.17l2.093-.523a1.668,1.668,0,0,1,1.429.3l2.2,1.714a1.668,1.668,0,0,1,.156,2.5l-.989.989a2.657,2.657,0,0,1-2.75.671,17.816,17.816,0,0,1-6.7-4.226,17.816,17.816,0,0,1-4.227-6.7A2.658,2.658,0,0,1,1.938,2.6l.989-.988Z" transform="translate(201.727 183.427)" fill="none" stroke="#2cbf88" stroke-width="1.5" fill-rule="evenodd"/>
      </g>
    </g>
  </g>
</svg>
