<svg xmlns="http://www.w3.org/2000/svg" width="24.166" height="24.167" viewBox="0 0 24.166 24.167">
  <g id="Grupo_481" data-name="Grupo 481" transform="translate(-148 -682.531)">
    <g id="cart" transform="translate(148 682.531)">
      <path id="Caminho_69" data-name="Caminho 69" d="M0,3.056A.806.806,0,0,1,.806,2.25H3.222A.806.806,0,0,1,4,2.861l.653,2.611h18.7a.806.806,0,0,1,.791.954L21.736,19.315a.806.806,0,0,1-.791.657H6.444a.806.806,0,0,1-.791-.657L3.238,6.45,2.594,3.861H.806A.806.806,0,0,1,0,3.056ZM5,7.083,7.113,18.361H20.276L22.391,7.083ZM8.056,19.972a3.222,3.222,0,1,0,3.222,3.222A3.222,3.222,0,0,0,8.056,19.972Zm11.278,0a3.222,3.222,0,1,0,3.222,3.222A3.222,3.222,0,0,0,19.333,19.972ZM8.056,21.583a1.611,1.611,0,1,0,1.611,1.611A1.611,1.611,0,0,0,8.056,21.583Zm11.278,0a1.611,1.611,0,1,0,1.611,1.611A1.611,1.611,0,0,0,19.333,21.583Z" transform="translate(0 -2.25)" fill="#313131" fill-rule="evenodd"/>
    </g>
  </g>
</svg>
