<svg xmlns="http://www.w3.org/2000/svg" xmlns:xlink="http://www.w3.org/1999/xlink" width="30.009" height="34.625" viewBox="0 0 30.009 34.625">
  <defs>
    <linearGradient id="linear-gradient" x1="1.768" y1="0.826" x2="-0.145" y2="-0.968" gradientUnits="objectBoundingBox">
      <stop offset="0" stop-color="#2cbf88"/>
      <stop offset="1" stop-color="#b9e33f"/>
      <stop offset="1" stop-color="#2cbf88"/>
      <stop offset="1" stop-color="#b9e33f"/>
      <stop offset="1"/>
    </linearGradient>
  </defs>
  <g id="Grupo_292" data-name="Grupo 292" transform="translate(-67 -1019.105)">
    <g id="outline" transform="translate(67 1019.104)">
      <path id="Caminho_116" data-name="Caminho 116" d="M76.277,32.2v-.62a6.348,6.348,0,1,0-12.7,0V33.89H61.273a.577.577,0,0,0-.577.577v2.308a.577.577,0,0,0,.577.577h.058l.547,5.194H59.542V17.731a1.731,1.731,0,1,0-3.463,0V42.546H50.308A1.156,1.156,0,0,0,49.154,43.7v1.66l-1.137,4.548a.577.577,0,0,0,.56.717H75.7a.577.577,0,0,0,.577-.577V47.77l.815-7.738a1.766,1.766,0,0,0,.917-1.558V34.323A2.168,2.168,0,0,0,76.277,32.2Zm-11.542-.62a5.194,5.194,0,0,1,10.388,0v.577H69.785a2.168,2.168,0,0,0-2.121,1.731H64.736ZM61.85,35.044h5.771V36.2H61.85Zm.641,2.308h5.13v1.122a1.788,1.788,0,0,0,.532,1.265,1.7,1.7,0,0,0,1.226.5,1.739,1.739,0,0,0,1.128-.442,1.728,1.728,0,0,0,2.308,0,1.728,1.728,0,0,0,2.308,0,1.713,1.713,0,0,0,.791.4l-.733,6.964H66.918l-.451-1.8V43.7a1.156,1.156,0,0,0-1.154-1.154H63.038ZM57.234,17.731a.577.577,0,1,1,1.154,0V42.546H57.234ZM50.308,43.7h15v1.154h-15Zm1.316,5.771.866-3.463h1.119l-.866,3.463Zm-1.443-3.463H51.3l-.866,3.463H49.316Zm4.617,0H56l-.433,3.463H53.933Zm1.934,3.463.433-3.463h1.29l.433,3.463Zm3.318,0-.433-3.463h1.2l.866,3.463Zm2.827,0-.866-3.463h1.119L64,49.471Zm2.308,0-.866-3.463h1.119l.866,3.463Zm9.937,0H67.495l-.289-1.154h7.917Zm1.731-12.7v1.7a.6.6,0,0,1-.548.609.577.577,0,0,1-.606-.576V36.2H74.546v2.308a.577.577,0,1,1-1.154,0V36.2H72.238v2.308a.577.577,0,1,1-1.154,0V36.2H69.929v2.308a.576.576,0,0,1-.568.577h-.008a.555.555,0,0,1-.39-.166.627.627,0,0,1-.188-.443V34.323a1.011,1.011,0,0,1,1.01-1.01h6.059a1.011,1.011,0,0,1,1.01,1.01Z" transform="translate(-48 -16)" fill="url(#linear-gradient)"/>
      <rect id="Ret창ngulo_28" data-name="Ret창ngulo 28" width="1.474" height="1.474" transform="translate(24.112 27.484)" fill="url(#linear-gradient)"/>
      <rect id="Ret창ngulo_29" data-name="Ret창ngulo 29" width="1.474" height="1.474" transform="translate(24.112 24.535)" fill="url(#linear-gradient)"/>
    </g>
  </g>
</svg>
