<svg xmlns="http://www.w3.org/2000/svg" xmlns:xlink="http://www.w3.org/1999/xlink" width="32" height="29.924" viewBox="0 0 32 29.924">
  <defs>
    <linearGradient id="linear-gradient" x1="1.307" y1="1" x2="-0.145" y2="-0.968" gradientUnits="objectBoundingBox">
      <stop offset="0" stop-color="#2cbf88"/>
      <stop offset="1" stop-color="#b9e33f"/>
      <stop offset="1" stop-color="#2cbf88"/>
      <stop offset="1" stop-color="#b9e33f"/>
      <stop offset="1"/>
    </linearGradient>
  </defs>
  <g id="Grupo_265" data-name="Grupo 265" transform="translate(-317.149 -487.619)">
    <g id="Grupo_270" data-name="Grupo 270" transform="translate(-2296.451 -2146.436)">
      <circle id="Elipse_11" data-name="Elipse 11" cx="1.476" cy="1.476" r="1.476" transform="translate(2621.544 2650.903)" fill="url(#linear-gradient)"/>
      <circle id="Elipse_12" data-name="Elipse 12" cx="1.476" cy="1.476" r="1.476" transform="translate(2634.704 2650.903)" fill="url(#linear-gradient)"/>
      <path id="Caminho_107" data-name="Caminho 107" d="M32,36.936a3.857,3.857,0,0,0-3.086-3.827v-.576A13.179,13.179,0,0,0,16,19.132a13.179,13.179,0,0,0-12.914,13.4v.576a3.915,3.915,0,0,0,.045,7.662,7.8,7.8,0,0,0,3.881,6.491c2.072,1.207,5.012,1.794,8.988,1.794s6.916-.587,8.988-1.794a7.8,7.8,0,0,0,3.881-6.491A3.855,3.855,0,0,0,32,36.936Zm-30.677,0a2.508,2.508,0,0,1,1.763-2.42v4.84A2.508,2.508,0,0,1,1.323,36.936Zm26.268,2.755c0,3.014-1.063,5.1-3.251,6.374-1.869,1.089-4.6,1.618-8.34,1.618s-6.471-.529-8.34-1.618c-2.188-1.275-3.251-3.359-3.251-6.374V32.533A12,12,0,0,1,12.67,21.011c3.636.048,5.573,2.772,5.573,4.744A2.694,2.694,0,0,1,15.6,28.5a2.021,2.021,0,0,1-1.98-2.055,1.481,1.481,0,0,1,1.452-1.506.687.687,0,0,0,0-1.373A2.832,2.832,0,0,0,12.3,26.441a3.371,3.371,0,0,0,3.3,3.427,4.045,4.045,0,0,0,3.963-4.113,5.976,5.976,0,0,0-1.845-4.1,6.737,6.737,0,0,0-1.562-1.149A11.836,11.836,0,0,1,27.591,32.533v7.158Zm1.323-.335v-4.84a2.542,2.542,0,0,1,0,4.84Z" transform="translate(2613.6 2614.923)" fill="url(#linear-gradient)"/>
      <path id="Caminho_108" data-name="Caminho 108" d="M156.176,253.085a4.206,4.206,0,0,1-5.942,0,.768.768,0,1,0-1.086,1.086,5.745,5.745,0,0,0,8.115,0,.768.768,0,1,0-1.087-1.086Z" transform="translate(2476.395 2401.013)" fill="url(#linear-gradient)"/>
    </g>
  </g>
</svg>
