<svg xmlns="http://www.w3.org/2000/svg" xmlns:xlink="http://www.w3.org/1999/xlink" width="36.499" height="31.38" viewBox="0 0 36.499 31.38">
  <defs>
    <linearGradient id="linear-gradient" x1="-0.541" x2="0.5" y2="1" gradientUnits="objectBoundingBox">
      <stop offset="0" stop-color="#b9e33f"/>
      <stop offset="1" stop-color="#2cbf88"/>
    </linearGradient>
  </defs>
  <g id="Grupo_283" data-name="Grupo 283" transform="translate(-188 -882.139)">
    <g id="paw" transform="translate(187.999 846.234)">
      <g id="Grupo_290" data-name="Grupo 290" transform="translate(0.001 35.905)">
        <g id="Grupo_90" data-name="Grupo 90" transform="translate(5.984 13.587)">
          <g id="Grupo_89" data-name="Grupo 89" transform="translate(0 0)">
            <path id="Caminho_118" data-name="Caminho 118" d="M104.951,231.094c-2.456-2.965-5.56-4.6-8.74-4.6s-6.285,1.633-8.74,4.6a14.738,14.738,0,0,0-3.525,8.985,4.013,4.013,0,0,0,1.307,3.256,4.922,4.922,0,0,0,3.247.954,24.9,24.9,0,0,0,4.294-.542,21.142,21.142,0,0,1,3.418-.456,19.9,19.9,0,0,1,3.136.433c2.8.52,5.98,1.11,7.815-.416a3.977,3.977,0,0,0,1.315-3.23A14.738,14.738,0,0,0,104.951,231.094Zm.843,10.57c-1.064.885-3.833.371-6.057-.042a21.055,21.055,0,0,0-3.526-.469,22.432,22.432,0,0,0-3.8.491c-2.134.391-4.789.879-5.786.048-.133-.111-.537-.448-.537-1.613a12.73,12.73,0,0,1,3.034-7.621c2.042-2.466,4.561-3.823,7.093-3.823s5.051,1.358,7.093,3.823a12.73,12.73,0,0,1,3.034,7.621C106.337,241.212,105.928,241.553,105.794,241.664Z" transform="translate(-83.945 -226.496)" fill="url(#linear-gradient)"/>
          </g>
        </g>
        <g id="Grupo_92" data-name="Grupo 92" transform="translate(18.901)">
          <g id="Grupo_91" data-name="Grupo 91" transform="translate(0 0)">
            <path id="Caminho_119" data-name="Caminho 119" d="M273.481,37.991a4.031,4.031,0,0,0-7.06,0,8.55,8.55,0,0,0,0,9,4.031,4.031,0,0,0,7.06,0,8.55,8.55,0,0,0,0-9Zm-1.77,7.8a1.924,1.924,0,0,1-3.52,0,6.43,6.43,0,0,1,0-6.6,1.924,1.924,0,0,1,3.52,0,6.43,6.43,0,0,1,0,6.6Z" transform="translate(-265.141 -35.907)" fill="url(#linear-gradient)"/>
          </g>
        </g>
        <g id="Grupo_94" data-name="Grupo 94" transform="translate(7.978)">
          <g id="Grupo_93" data-name="Grupo 93" transform="translate(0 0)">
            <path id="Caminho_120" data-name="Caminho 120" d="M120.256,37.989a4.031,4.031,0,0,0-7.06,0,8.55,8.55,0,0,0,0,9,4.031,4.031,0,0,0,7.06,0,8.55,8.55,0,0,0,0-9Zm-1.77,7.8a1.924,1.924,0,0,1-3.52,0,6.429,6.429,0,0,1,0-6.6,1.924,1.924,0,0,1,3.52,0,6.429,6.429,0,0,1,0,6.6Z" transform="translate(-111.916 -35.905)" fill="url(#linear-gradient)"/>
          </g>
        </g>
        <path id="Caminho_121" data-name="Caminho 121" d="M405.31,174.637a3.672,3.672,0,0,0-2.186-2.521,3.436,3.436,0,0,0-2.679.151,5.513,5.513,0,0,0-2.734,3.232,5.961,5.961,0,0,0-.149,3.609,3.672,3.672,0,0,0,2.186,2.521,3.217,3.217,0,0,0,1.134.2,3.648,3.648,0,0,0,1.546-.355,5.513,5.513,0,0,0,2.734-3.232h0A5.961,5.961,0,0,0,405.31,174.637Zm-2.168,2.9a3.429,3.429,0,0,1-1.622,2,1.326,1.326,0,0,1-1.021.086c-.926-.348-1.286-1.947-.771-3.422a3.43,3.43,0,0,1,1.622-2,1.533,1.533,0,0,1,.638-.154,1.082,1.082,0,0,1,.383.068C403.3,174.466,403.658,176.065,403.143,177.54Z" transform="translate(-369.024 -162.217)" fill="url(#linear-gradient)"/>
        <g id="Grupo_98" data-name="Grupo 98" transform="translate(0 9.696)">
          <g id="Grupo_97" data-name="Grupo 97" transform="translate(0)">
            <path id="Caminho_122" data-name="Caminho 122" d="M7.813,175.5a5.513,5.513,0,0,0-2.734-3.232,3.436,3.436,0,0,0-2.679-.151,3.673,3.673,0,0,0-2.186,2.521,5.96,5.96,0,0,0,.149,3.609h0A5.514,5.514,0,0,0,3.1,181.478a3.649,3.649,0,0,0,1.546.355,3.218,3.218,0,0,0,1.134-.2,3.673,3.673,0,0,0,2.186-2.521A5.962,5.962,0,0,0,7.813,175.5Zm-2.79,4.128A1.326,1.326,0,0,1,4,179.541a3.429,3.429,0,0,1-1.622-2h0c-.515-1.475-.155-3.074.771-3.422a1.326,1.326,0,0,1,1.021.086,3.429,3.429,0,0,1,1.622,2C6.309,177.68,5.949,179.279,5.023,179.627Z" transform="translate(-0.001 -171.912)" fill="url(#linear-gradient)"/>
          </g>
        </g>
      </g>
    </g>
  </g>
</svg>
