<svg xmlns="http://www.w3.org/2000/svg" xmlns:xlink="http://www.w3.org/1999/xlink" width="32" height="32" viewBox="0 0 32 32">
  <defs>
    <linearGradient id="linear-gradient" x1="1.307" y1="1" x2="-0.145" y2="-0.968" gradientUnits="objectBoundingBox">
      <stop offset="0" stop-color="#2cbf88"/>
      <stop offset="1" stop-color="#b9e33f"/>
      <stop offset="1" stop-color="#2cbf88"/>
      <stop offset="1" stop-color="#b9e33f"/>
      <stop offset="1"/>
    </linearGradient>
    <linearGradient id="linear-gradient-2" x1="1.307" y1="1" x2="-0.145" y2="-0.968" gradientUnits="objectBoundingBox">
      <stop offset="0" stop-color="#2cbf88"/>
      <stop offset="0.562" stop-color="#b9e33f"/>
      <stop offset="1" stop-color="#2cbf88"/>
      <stop offset="1" stop-color="#b9e33f"/>
      <stop offset="1"/>
    </linearGradient>
  </defs>
  <g id="Grupo_257" data-name="Grupo 257" transform="translate(-315 -354.497)">
    <g id="bread2" transform="translate(315 354.497)">
      <path id="Caminho_102" data-name="Caminho 102" d="M89.434,207.05a.567.567,0,1,0,.418-1.055,14.374,14.374,0,0,0-9.495,0,.567.567,0,1,0,.418,1.055,13.26,13.26,0,0,1,8.66,0Z" transform="translate(-75.459 -192.623)" fill="url(#linear-gradient)"/>
      <path id="Caminho_103" data-name="Caminho 103" d="M42.667,16H40.533c-1.558,0-2.908,1.7-3.9,4.905a30.835,30.835,0,0,0-1.078,5.228H24.533v.008a15.5,15.5,0,0,0-5.716,1.143C17,28.088,16,29.209,16,30.441c0,1.059.754,2.052,2.133,2.818V43.07a4.379,4.379,0,0,0-1.562,2.581,1.979,1.979,0,0,0,.413,1.644A1.919,1.919,0,0,0,18.47,48H38.064a1.912,1.912,0,0,0,1.19-.415A2.273,2.273,0,0,0,40.533,48h2.133c1.558,0,2.908-1.7,3.9-4.905A39,39,0,0,0,48,32a39,39,0,0,0-1.43-11.095C45.574,17.7,44.224,16,42.667,16ZM18.47,46.933a.856.856,0,0,1-.662-.316.916.916,0,0,1-.19-.761,3.3,3.3,0,0,1,1.95-2.411,7.459,7.459,0,0,0-.324,1.271,3.135,3.135,0,0,0,.451,2.218Zm3.4,0h-.309A1.133,1.133,0,0,1,20.7,46.5a2.008,2.008,0,0,1-.4-1.612,5.473,5.473,0,0,1,2.262-3.742,5.743,5.743,0,0,0-.034,2.536l.64,3.047a1.57,1.57,0,0,0,.059.2ZM23.129,39.7a5.539,5.539,0,0,0-2.972,2.484,4.2,4.2,0,0,0-.958.263V32.937a.533.533,0,0,0-.294-.477c-1.186-.594-1.839-1.312-1.839-2.019,0-.773.8-1.568,2.182-2.181a14.821,14.821,0,0,1,5.818-1.06,14.819,14.819,0,0,1,5.818,1.06c1.387.613,2.182,1.408,2.182,2.181,0,.708-.653,1.425-1.839,2.019a.533.533,0,0,0-.294.477v4.429a5.529,5.529,0,0,0-1.273-.425,6.934,6.934,0,0,0-2.788,0,5.526,5.526,0,0,0-3.532,2.405C23.265,39.461,23.2,39.578,23.129,39.7Zm9.836,3.766-.64,3.047a.536.536,0,0,1-.522.424H24.73a.536.536,0,0,1-.522-.424l-.64-3.047a4.646,4.646,0,0,1,.664-3.531,4.466,4.466,0,0,1,2.853-1.946,5.873,5.873,0,0,1,2.362,0A4.466,4.466,0,0,1,32.3,39.932,4.646,4.646,0,0,1,32.965,43.463ZM35.833,46.5a1.132,1.132,0,0,1-.857.433H33.31a1.571,1.571,0,0,0,.059-.2l.64-3.047a5.743,5.743,0,0,0-.033-2.536,5.473,5.473,0,0,1,2.262,3.742A2.01,2.01,0,0,1,35.833,46.5ZM33.4,39.7c-.067-.119-.136-.236-.211-.351A5.638,5.638,0,0,0,32,38.035V33.259c1.379-.766,2.133-1.758,2.133-2.818,0-1.232-1-2.353-2.817-3.157-.065-.029-.133-.057-.2-.084h4.316c-.153,1.532-.233,3.147-.233,4.8a40.848,40.848,0,0,0,1.16,10.155A5.53,5.53,0,0,0,33.4,39.7Zm5.321,6.92a.856.856,0,0,1-.662.316H36.839a3.135,3.135,0,0,0,.451-2.218,7.464,7.464,0,0,0-.324-1.271,3.3,3.3,0,0,1,1.95,2.411.916.916,0,0,1-.19.761Zm1.808.316a1.216,1.216,0,0,1-.654-.215,1.987,1.987,0,0,0,.083-1.068,4.37,4.37,0,0,0-2.382-3.1,26.739,26.739,0,0,1-.659-2.809,7.731,7.731,0,0,1,4.509.228h0a.533.533,0,1,0,.337-1.011h0l-.006,0-.008,0a8.791,8.791,0,0,0-5.009-.272,45.185,45.185,0,0,1-.478-6.323,7.3,7.3,0,0,1,4.63.145h0a.533.533,0,1,0,.337-1.011h0l-.006,0-.008,0a8.554,8.554,0,0,0-4.949-.244,44.6,44.6,0,0,1,.456-5.843,7.573,7.573,0,0,1,4.7.169h0a.533.533,0,1,0,.337-1.011h0l-.006,0-.008,0a8.885,8.885,0,0,0-4.834-.316,26.246,26.246,0,0,1,.728-3.019c.808-2.6,1.886-4.157,2.885-4.157s2.077,1.553,2.885,4.155A37.923,37.923,0,0,1,44.8,32a37.922,37.922,0,0,1-1.382,10.779C42.611,45.38,41.532,46.933,40.533,46.933Zm5.018-4.155c-.807,2.6-1.886,4.155-2.885,4.155h-.124a10.751,10.751,0,0,0,1.894-3.839A39,39,0,0,0,45.867,32a39,39,0,0,0-1.43-11.095,10.751,10.751,0,0,0-1.894-3.839h.124c1,0,2.077,1.553,2.885,4.155A37.924,37.924,0,0,1,46.933,32,37.922,37.922,0,0,1,45.551,42.779Z" transform="translate(-16 -16)" fill="url(#linear-gradient-2)"/>
    </g>
  </g>
</svg>
