<svg xmlns="http://www.w3.org/2000/svg" width="29.3" height="20.027" viewBox="0 0 29.3 20.027">
  <g id="Grupo_392" data-name="Grupo 392" transform="translate(-25 -39.973)">
    <g id="Grupo_351" data-name="Grupo 351" transform="translate(-82.488 115)">
      <g id="card-text" transform="translate(107.488 -75.027)">
        <path id="Caminho_58" data-name="Caminho 58" d="M6.75,12.919A1.577,1.577,0,0,1,8.215,11.25h26.37a1.577,1.577,0,0,1,1.465,1.669,1.577,1.577,0,0,1-1.465,1.669H8.215A1.577,1.577,0,0,1,6.75,12.919Zm0,8.344a1.577,1.577,0,0,1,1.465-1.669h26.37a1.683,1.683,0,0,1,0,3.338H8.215A1.577,1.577,0,0,1,6.75,21.263Zm0,8.344a1.577,1.577,0,0,1,1.465-1.669H25.8a1.683,1.683,0,0,1,0,3.338H8.215A1.577,1.577,0,0,1,6.75,29.608Z" transform="translate(-6.75 -11.25)" fill="#fff" fill-rule="evenodd"/>
      </g>
    </g>
  </g>
</svg>
