<svg xmlns="http://www.w3.org/2000/svg" xmlns:xlink="http://www.w3.org/1999/xlink" width="21.37" height="37.394" viewBox="0 0 21.37 37.394">
  <defs>
    <linearGradient id="linear-gradient" x1="1.757" y1="2.186" x2="-0.269" y2="-0.208" gradientUnits="objectBoundingBox">
      <stop offset="0" stop-color="#2cbf88"/>
      <stop offset="0.767" stop-color="#93d953"/>
      <stop offset="1" stop-color="#b9e33f"/>
    </linearGradient>
  </defs>
  <g id="Grupo_259" data-name="Grupo 259" transform="translate(-71 -350.336)">
    <g id="Grupo_246" data-name="Grupo 246" transform="translate(-269.804 143.716)">
      <g id="garrafa-de-vinho-de-uva-com-copo" transform="translate(340.804 206.621)">
        <g id="Grupo_68" data-name="Grupo 68" transform="translate(0)">
          <path id="Caminho_87" data-name="Caminho 87" d="M67.883,10.406V3.8a.555.555,0,0,0,.177-.4V.567A.568.568,0,0,0,67.495,0h-4.6a.567.567,0,0,0-.567.567V3.4a.558.558,0,0,0,.18.4v6.6a6.661,6.661,0,0,0-3.951,6.05v8.365H51.029a.566.566,0,0,0-.566.567A5.388,5.388,0,0,0,55.3,30.731V36.26H52.561a.567.567,0,1,0,0,1.134H71.267a.567.567,0,0,0,.566-.567V16.457A6.664,6.664,0,0,0,67.883,10.406ZM63.64,1.134h3.112v1.7H63.64ZM59.69,16.456a5.521,5.521,0,0,1,3.582-5.139.565.565,0,0,0,.368-.531V3.965h3.112v6.821a.564.564,0,0,0,.367.531A5.52,5.52,0,0,1,70.7,16.456v.994H59.69v-.994Zm0,2.129H70.7V29.653H59.69v-.462a5.392,5.392,0,0,0,1.572-3.8.568.568,0,0,0-.566-.567H59.69Zm-1.133,7.369h1.534a4.24,4.24,0,0,1-.4,1.238,4.307,4.307,0,0,1-1.133,1.474,4.236,4.236,0,0,1-6.924-2.712Zm-2.128,4.774a5.283,5.283,0,0,0,2.128-.688v6.217H56.429ZM70.7,36.257H59.69v-5.47H70.7Z" transform="translate(-50.463)" fill="url(#linear-gradient)"/>
          <path id="Caminho_88" data-name="Caminho 88" d="M138.328,162.9a1.028,1.028,0,1,1-.93,1.024A.981.981,0,0,1,138.328,162.9Z" transform="translate(-123.596 -137.039)" fill="url(#linear-gradient)"/>
          <path id="Caminho_89" data-name="Caminho 89" d="M120.383,135.167a1.026,1.026,0,1,1-.931,1.022A.98.98,0,0,1,120.383,135.167Z" transform="translate(-108.499 -113.707)" fill="url(#linear-gradient)"/>
          <path id="Caminho_90" data-name="Caminho 90" d="M138.327,127.863a.979.979,0,0,0,.93-1.021,1.027,1.027,0,0,0-.354-.779,8.914,8.914,0,0,1,1.525-1.523l-.731-.484-1.37,1.765a1.026,1.026,0,0,0,0,2.042Z" transform="translate(-123.595 -104.36)" fill="url(#linear-gradient)"/>
          <path id="Caminho_91" data-name="Caminho 91" d="M156.273,135.167a1.027,1.027,0,1,1-.926,1.022A.977.977,0,0,1,156.273,135.167Z" transform="translate(-138.695 -113.707)" fill="url(#linear-gradient)"/>
          <path id="Caminho_92" data-name="Caminho 92" d="M128.4,149.777a.936.936,0,1,0,.933-1.021A.983.983,0,0,0,128.4,149.777Z" transform="translate(-116.023 -125.139)" fill="url(#linear-gradient)"/>
          <path id="Caminho_93" data-name="Caminho 93" d="M147.3,148.752a1.025,1.025,0,1,0,.932,1.021A.98.98,0,0,0,147.3,148.752Z" transform="translate(-131.143 -125.135)" fill="url(#linear-gradient)"/>
        </g>
      </g>
    </g>
  </g>
</svg>
