<svg xmlns="http://www.w3.org/2000/svg" xmlns:xlink="http://www.w3.org/1999/xlink" width="45" height="32" viewBox="0 0 45 32">
  <defs>
    <linearGradient id="linear-gradient" x1="1" y1="2.702" x2="-0.145" y2="-0.968" gradientUnits="objectBoundingBox">
      <stop offset="0" stop-color="#2cbf88"/>
      <stop offset="1" stop-color="#b9e33f"/>
      <stop offset="1" stop-color="#2cbf88"/>
      <stop offset="1" stop-color="#b9e33f"/>
      <stop offset="1"/>
    </linearGradient>
  </defs>
  <g id="Grupo_264" data-name="Grupo 264" transform="translate(-310 -487.619)">
    <g id="bread" transform="translate(352 521.716)">
      <path id="Caminho_101" data-name="Caminho 101" d="M42.35,107.033a.625.625,0,0,0-.929.083.754.754,0,0,0,.076,1.005,5.884,5.884,0,0,1,2.184,4.238,3.579,3.579,0,0,1-1,2.538c-1.122,1.214-3.209,2.118-6.2,2.688a55.68,55.68,0,0,1-10.3.75c-6.548-.01-11.167-.623-14.057-1.869a47.172,47.172,0,0,0,3.581-3.093,2.293,2.293,0,0,0,1.562.9,2.419,2.419,0,0,0,2.577-2.3,16.392,16.392,0,0,0,.007-2.817q1.736-1.874,3.139-3.547a10.261,10.261,0,0,1,1.083,3.077,10.587,10.587,0,0,1,.119,2.8,2.526,2.526,0,0,0,2.117,2.8,2.407,2.407,0,0,0,2.566-2.3,16.14,16.14,0,0,0-.184-4.272,15.628,15.628,0,0,0-1.412-4.243,32.8,32.8,0,0,1,3.7.331A10.693,10.693,0,0,1,33,108.692a10.579,10.579,0,0,1,0,2.8,2.546,2.546,0,0,0,1.995,2.9,2.394,2.394,0,0,0,2.663-2.17,16.158,16.158,0,0,0-.007-4.276,15.655,15.655,0,0,0-.554-2.5,18.945,18.945,0,0,1,1.869.894.637.637,0,0,0,.886-.312.742.742,0,0,0-.289-.959,28.864,28.864,0,0,0-13.778-3.042q.532-.746.991-1.455c1.931-2.98,2.869-5.422,2.869-7.466a5.073,5.073,0,0,0-1.343-3.567c-1.864-2.012-5.02-2.329-8.886-.893a30.651,30.651,0,0,0-11.187,8C3.155,102.131,0,108.566,0,113.445a7.008,7.008,0,0,0,1.646,4.869,4.312,4.312,0,0,0,3.287,1.446,9.6,9.6,0,0,0,4.765-1.62q.554-.332,1.138-.733c3.006,1.572,8.034,2.343,15.348,2.353a58.75,58.75,0,0,0,10.527-.772c3.313-.63,5.572-1.639,6.908-3.084A5.065,5.065,0,0,0,45,112.357a7.292,7.292,0,0,0-2.649-5.324Zm-6.873-2.186a14.2,14.2,0,0,1,.872,3.31,14.612,14.612,0,0,1,.006,3.868,1.048,1.048,0,0,1-1.167.958,1.13,1.13,0,0,1-.88-1.29,12.119,12.119,0,0,0,0-3.208,11.918,11.918,0,0,0-1.5-4.351A26.085,26.085,0,0,1,35.477,104.847Zm-16.94,6.991a1.067,1.067,0,0,1-1.024,1.021,1,1,0,0,1-.818-.436q.92-.9,1.9-1.926C18.6,110.943,18.577,111.392,18.537,111.838Zm8.865-3.851a14.6,14.6,0,0,1,.166,3.864,1.06,1.06,0,0,1-1.126,1.016,1.121,1.121,0,0,1-.932-1.246,12.133,12.133,0,0,0-.137-3.2,11.807,11.807,0,0,0-1.461-3.92q.414-.515.8-1.013c.345-.014.694-.025,1.044-.028A14.2,14.2,0,0,1,27.4,107.987ZM16.668,91.518a12.107,12.107,0,0,1,2.778,1.672,13.053,13.053,0,0,1,2.532,2.73,1.18,1.18,0,0,1-.12,1.5,1,1,0,0,1-1.545-.168,10.822,10.822,0,0,0-2.1-2.265,10.118,10.118,0,0,0-3.9-1.931A27.594,27.594,0,0,1,16.668,91.518ZM3.734,105.266a11.988,11.988,0,0,1,2.879,1.55,12.919,12.919,0,0,1,2.643,2.6,1.183,1.183,0,0,1-.057,1.506,1,1,0,0,1-1.549-.093,10.717,10.717,0,0,0-2.191-2.162,9.947,9.947,0,0,0-2.681-1.387q.423-1,.957-2.019ZM9.06,116.893c-2.97,1.78-5.09,1.914-6.483.412a5.494,5.494,0,0,1-1.259-3.859,14.828,14.828,0,0,1,.946-4.838,8.691,8.691,0,0,1,2.456,1.248,9.353,9.353,0,0,1,1.912,1.887,2.26,2.26,0,0,0,3.5.2,2.69,2.69,0,0,0,.143-3.424,14.28,14.28,0,0,0-2.921-2.879,13.265,13.265,0,0,0-2.926-1.614c.54-.926,1.142-1.853,1.8-2.768a9.21,9.21,0,0,1,4.889,1.7,9.347,9.347,0,0,1,1.912,1.887,2.252,2.252,0,0,0,3.324.364,2.692,2.692,0,0,0,.315-3.592,14.657,14.657,0,0,0-1.723-1.894.625.625,0,0,0-.929.081.754.754,0,0,0,.075,1.005,13.265,13.265,0,0,1,1.56,1.716,1.181,1.181,0,0,1-.133,1.58,1,1,0,0,1-1.473-.167,10.713,10.713,0,0,0-2.191-2.161,10.261,10.261,0,0,0-4.624-1.849q.784-.993,1.651-1.951a12.166,12.166,0,0,1,2.78,1.089.637.637,0,0,0,.885-.317.742.742,0,0,0-.293-.958,13.337,13.337,0,0,0-2.278-.973,36.288,36.288,0,0,1,2.835-2.6,9.081,9.081,0,0,1,4.618,1.914,9.451,9.451,0,0,1,1.832,1.978,2.266,2.266,0,0,0,3.486.366,2.684,2.684,0,0,0,.286-3.412,14.426,14.426,0,0,0-2.8-3.018A13.4,13.4,0,0,0,18.205,90.7q.829-.4,1.643-.7a11.548,11.548,0,0,1,3.953-.813,4.677,4.677,0,0,1,3.574,1.366,3.587,3.587,0,0,1,.955,2.557c0,1.717-.885,3.953-2.63,6.647a36.089,36.089,0,0,1-3.1,4.189c-3.928,4.423-8.685,10.037-13.545,12.95Z" transform="translate(-42 -121.858)" fill="url(#linear-gradient)"/>
    </g>
  </g>
</svg>
