<svg xmlns="http://www.w3.org/2000/svg" xmlns:xlink="http://www.w3.org/1999/xlink" width="17.197" height="38.579" viewBox="0 0 17.197 38.579">
  <defs>
    <linearGradient id="linear-gradient" x1="1.307" y1="1" x2="-0.477" y2="0.149" gradientUnits="objectBoundingBox">
      <stop offset="0" stop-color="#2cbf88"/>
      <stop offset="1" stop-color="#b9e33f"/>
      <stop offset="1" stop-color="#2cbf88"/>
      <stop offset="1" stop-color="#b9e33f"/>
      <stop offset="1"/>
    </linearGradient>
  </defs>
  <g id="Grupo_258" data-name="Grupo 258" transform="translate(-198 -350.336)">
    <g id="Grupo_252" data-name="Grupo 252" transform="translate(143.857 40.757)">
      <path id="softdrinks" d="M103.739,26.455v6.262H97.29c-.237,0-.43.288-.43.643v2.42l-.814,2.436A.912.912,0,0,0,96,38.5v12.86a.912.912,0,0,0,.045.288l.86,2.572a.45.45,0,0,0,.385.355h6.879a.45.45,0,0,0,.384-.355l.008-.024c.736.676,1.693.428,2.235-.578a1.939,1.939,0,0,0,3.344,0,1.41,1.41,0,0,0,1.911.81,2.724,2.724,0,0,0,1.147-2.425c0-.013,0-.027,0-.04l-.427-10.222.424-4.436c0-.03,0-.06,0-.091h0V26.455a4.375,4.375,0,0,0-.389-1.844l-2.225-4.754h.034c.237,0,.43-.288.43-.643V17.929c0-1.065-.578-1.928-1.29-1.929h-2.58c-.712,0-1.289.864-1.29,1.929v1.286c0,.355.192.643.43.643h.034l-2.225,4.754A4.375,4.375,0,0,0,103.739,26.455ZM96.86,50.721V39.147h3.487a20.667,20.667,0,0,1,.812,5.144,16.116,16.116,0,0,1-1.293,6.43Zm4.407-11.574h.8a20.667,20.667,0,0,1,.812,5.144,16.117,16.117,0,0,1-1.293,6.43h-.735a17.17,17.17,0,0,0,1.169-6.43A21.087,21.087,0,0,0,101.267,39.147ZM103.9,53.293H97.555l-.43-1.286h7.207Zm7.574,0c-.475,0-.859-.576-.86-1.286,0-.355-.192-.643-.43-.643s-.43.288-.43.643a1.29,1.29,0,0,1-2.58,0c0-.355-.192-.643-.43-.643s-.43.288-.43.643a1.451,1.451,0,0,1-.472,1.148.634.634,0,0,1-.9-.113l.465-1.39a.912.912,0,0,0,.045-.287V38.5a.913.913,0,0,0-.045-.288l-.119-.355h6.977l-.36,3.767a.945.945,0,0,0,0,.131l.429,10.266C112.33,52.728,111.947,53.292,111.477,53.293Zm-4.729-35.364c0-.355.193-.643.43-.643h2.58c.237,0,.43.288.43.643v.643h-3.439Zm-2.15,8.526a2.626,2.626,0,0,1,.233-1.106l2.57-5.491h2.132l2.57,5.491a2.625,2.625,0,0,1,.233,1.106v1.118H104.6Zm0,6.905v-4.5h7.739v7.716h-7.473l-.266-.795Zm0,17.36H102.57a17.17,17.17,0,0,0,1.169-6.43,21.086,21.086,0,0,0-.752-5.144H104.6Zm-7.473-12.86.43-1.286h4.033c.237,0,.43-.288.43-.643s-.192-.643-.43-.643H97.72V34h6.019v1.286h-.43c-.237,0-.43.288-.43.643s.192.643.43.643h.594l.43,1.286Z" transform="translate(-41.857 293.58)" fill="url(#linear-gradient)"/>
    </g>
  </g>
</svg>
