<svg xmlns="http://www.w3.org/2000/svg" width="31" height="31" viewBox="0 0 31 31">
  <g id="Grupo_648" data-name="Grupo 648" transform="translate(-83 -178.703)">
    <g id="Grupo_646" data-name="Grupo 646">
      <circle id="Elipse_22" data-name="Elipse 22" cx="15.5" cy="15.5" r="15.5" transform="translate(83 178.703)" fill="#b2e8d4"/>
      <g id="Grupo_624" data-name="Grupo 624" transform="translate(-25 8.939)">
        <g id="Grupo_611" data-name="Grupo 611" transform="translate(117 178)">
          <g id="Grupo_626" data-name="Grupo 626">
            <g id="Retângulo_851" data-name="Retângulo 851" transform="translate(0 -0.236)" fill="none" stroke="#2cbf88" stroke-width="1">
              <rect width="14" height="16" rx="2" stroke="none"/>
              <rect x="0.5" y="0.5" width="13" height="15" rx="1.5" fill="none"/>
            </g>
            <g id="Grupo_625" data-name="Grupo 625" transform="translate(0.558)">
              <g id="Grupo_607" data-name="Grupo 607" transform="translate(2.252 4.003)">
                <path id="Caminho_364" data-name="Caminho 364" d="M0,0H6.773" transform="translate(1.859 0.375)" fill="#2cbf88" stroke="#2cbf88" stroke-linecap="round" stroke-width="1"/>
                <circle id="Elipse_21" data-name="Elipse 21" cx="0.5" cy="0.5" r="0.5" transform="translate(-0.252 -0.239)" fill="#2cbf88"/>
              </g>
              <g id="Grupo_608" data-name="Grupo 608" transform="translate(2.252 7.005)">
                <path id="Caminho_364-2" data-name="Caminho 364" d="M0,0H6.773" transform="translate(1.859 0.375)" fill="#2cbf88" stroke="#2cbf88" stroke-linecap="round" stroke-width="1"/>
                <circle id="Elipse_21-2" data-name="Elipse 21" cx="0.5" cy="0.5" r="0.5" transform="translate(-0.252 -0.241)" fill="#2cbf88"/>
              </g>
              <g id="Grupo_609" data-name="Grupo 609" transform="translate(2.252 10.008)">
                <path id="Caminho_364-3" data-name="Caminho 364" d="M0,0H6.773" transform="translate(1.859 0.375)" fill="#2cbf88" stroke="#2cbf88" stroke-linecap="round" stroke-width="1"/>
                <circle id="Elipse_21-3" data-name="Elipse 21" cx="0.5" cy="0.5" r="0.5" transform="translate(-0.252 -0.244)" fill="#2cbf88"/>
              </g>
            </g>
          </g>
        </g>
      </g>
    </g>
  </g>
</svg>
