<svg xmlns="http://www.w3.org/2000/svg" width="31" height="31" viewBox="0 0 31 31">
  <g id="Grupo_647" data-name="Grupo 647" transform="translate(-305 -176.703)">
    <g id="Grupo_633" data-name="Grupo 633">
      <path id="Caminho_366" data-name="Caminho 366" d="M15.5,0A15.5,15.5,0,1,1,0,15.5,15.5,15.5,0,0,1,15.5,0Z" transform="translate(305 176.703)" fill="#b2e8d4"/>
      <g id="placeholder" transform="translate(312 180.703)">
        <g id="Grupo_131" data-name="Grupo 131" transform="translate(0)">
          <g id="Grupo_130" data-name="Grupo 130">
            <path id="Caminho_133" data-name="Caminho 133" d="M84.19,0a8.192,8.192,0,0,0-6.968,12.5l6.5,10.477a.683.683,0,0,0,.58.323h.005a.682.682,0,0,0,.58-.332l6.336-10.579A8.192,8.192,0,0,0,84.19,0Zm5.864,11.686L84.294,21.3l-5.911-9.525a6.83,6.83,0,1,1,11.671-.092Z" transform="translate(-76 0)" fill="#2cbf88"/>
          </g>
        </g>
        <g id="Grupo_133" data-name="Grupo 133" transform="translate(4.095 4.095)">
          <g id="Grupo_132" data-name="Grupo 132">
            <path id="Caminho_134" data-name="Caminho 134" d="M170.1,90a4.1,4.1,0,1,0,4.1,4.1A4.1,4.1,0,0,0,170.1,90Zm0,6.834A2.739,2.739,0,1,1,172.83,94.1,2.741,2.741,0,0,1,170.1,96.834Z" transform="translate(-166 -90)" fill="#2cbf88"/>
          </g>
        </g>
      </g>
    </g>
  </g>
</svg>
