<svg xmlns="http://www.w3.org/2000/svg" width="24" height="24" viewBox="0 0 24 24">
  <g id="Grupo_588" data-name="Grupo 588" transform="translate(-49 -396)">
    <g id="Grupo_557" data-name="Grupo 557" transform="translate(49 396.261)">
      <g id="Elipse_17" data-name="Elipse 17" transform="translate(0 -0.261)" fill="none" stroke="#2cbf88" stroke-width="1">
        <circle cx="12" cy="12" r="12" stroke="none"/>
        <circle cx="12" cy="12" r="11.5" fill="none"/>
      </g>
    </g>
    <g id="Grupo_567" data-name="Grupo 567" transform="translate(12 -31.26)">
      <path id="Caminho_194" data-name="Caminho 194" d="M18.166,7.438a.767.767,0,1,0-1.085-1.085L12.26,11.176,10.232,9.148,7.438,6.354A.767.767,0,0,0,6.353,7.439l4.823,4.821L6.353,17.081a.767.767,0,1,0,1.085,1.085l4.821-4.823,4.821,4.823a.767.767,0,1,0,1.085-1.085L13.343,12.26l4.823-4.821Z" transform="translate(37 427)" fill="#2cbf88" fill-rule="evenodd"/>
    </g>
  </g>
</svg>
