<svg xmlns="http://www.w3.org/2000/svg" xmlns:xlink="http://www.w3.org/1999/xlink" width="32" height="32" viewBox="0 0 32 32">
  <defs>
    <linearGradient id="linear-gradient" x1="1.746" y1="2.597" x2="-0.269" y2="-0.208" gradientUnits="objectBoundingBox">
      <stop offset="0" stop-color="#2cbf88"/>
      <stop offset="0.909" stop-color="#93d953"/>
      <stop offset="1" stop-color="#b9e33f"/>
    </linearGradient>
  </defs>
  <path id="healthy-food" d="M29.4,25.694l-.348-.085c3.374-2.947,4.093-9.489.915-12.9a8.283,8.283,0,0,1-1.953-5.551c0-3.138-1.937-5.692-4.317-5.692s-4.317,2.554-4.317,5.692a9.528,9.528,0,0,1-.229,2.085,5.87,5.87,0,0,0-8.1-1.3v-6.4a.472.472,0,1,0-.943,0V3.519C8.7.811,6.138.087,3.269.7a.509.509,0,0,0-.343.683A11.938,11.938,0,0,0,4.814,4.514c1.452,1.691,3.254,2.53,5.294,1.928v1.5C7.339,5.9,2.7,6.632.8,11.308a.515.515,0,0,0,.245.661.46.46,0,0,0,.62-.261C3.407,7.43,7.574,7.084,9.785,8.94a1.177,1.177,0,0,0,1.589,0c2.516-2.113,6.87-1.193,8.361,3.43a9.818,9.818,0,0,1-.75,7.787c-.554,1.056-1.009,1.934-1.385,2.665-2.919-.67-3.336-.916-4.33-.893a.5.5,0,0,0,.02,1,3.775,3.775,0,0,1,.57.032l-.283,2.707a.5.5,0,0,0,.416.555.48.48,0,0,0,.521-.444l.273-2.617,4.569,1.113-.135,1.291a.5.5,0,0,0,.416.555.48.48,0,0,0,.521-.444l.123-1.177,7.066,1.721-.364,3.484a.5.5,0,0,0,.416.555.479.479,0,0,0,.521-.444l.352-3.37.915.223a2.4,2.4,0,0,1,1.754,2.632,2.332,2.332,0,0,1-2.255,2.155l-4.825.01.171-1.639a.5.5,0,0,0-.416-.555.479.479,0,0,0-.521.444l-.183,1.752-4.625.009.161-1.54a.5.5,0,0,0-.416-.555.48.48,0,0,0-.521.444c-.04.384-.169,1.613-.173,1.654l-2.214,0,.28-2.681a.5.5,0,0,0-.416-.555.479.479,0,0,0-.521.444l-.292,2.795h-.017l-.781,0a4.075,4.075,0,0,1-3.887-3.2,4.375,4.375,0,0,1,2.171-4.943.517.517,0,0,0,.224-.669.459.459,0,0,0-.628-.238A5.078,5.078,0,0,0,9.1,24.531a6,6,0,0,1-2.627-2.48,1.543,1.543,0,0,0-2.929.769L2.07,19.957a9.781,9.781,0,0,1-.943-6.433.5.5,0,0,0-.366-.594A.473.473,0,0,0,.2,13.32a10.847,10.847,0,0,0,1.04,7.122l2.014,3.9-1.476-.175A1.58,1.58,0,0,0,.064,25.632a1.638,1.638,0,0,0,1.373,1.831l2.444.29a2.392,2.392,0,0,0-1.032,1.929,1.538,1.538,0,0,0,2.731.948,5.783,5.783,0,0,1,3.075-1.805A5.009,5.009,0,0,0,13.378,32.5l15.309-.031A3.328,3.328,0,0,0,31.9,29.034a3.371,3.371,0,0,0-2.5-3.34ZM4.056,1.579a4.748,4.748,0,0,1,5.771,3.9c-2.554.733-4.562-1.419-5.771-3.9ZM27.82,25.31l-9.26-2.255q.4-.784.9-1.734A5,5,0,0,0,23.815,24a5.14,5.14,0,0,0,4.939-4.311.5.5,0,0,0-.37-.591.473.473,0,0,0-.554.394A4.178,4.178,0,0,1,23.815,23a4.114,4.114,0,0,1-3.8-2.749,10.936,10.936,0,0,0,1.146-4.934,4.026,4.026,0,0,1,6.659,2.389.472.472,0,0,0,.561.385.5.5,0,0,0,.361-.6A5.454,5.454,0,0,0,27,14.472a4.787,4.787,0,0,0-5.915-.347,10.335,10.335,0,0,0-1.227-3.844,10.536,10.536,0,0,0,.463-3.122c0-2.319,1.355-4.687,3.375-4.687,2,0,3.375,2.336,3.375,4.687A9.214,9.214,0,0,0,29.3,13.42c2.455,2.632,2.218,7.518.085,10.4a6.012,6.012,0,0,1-1.561,1.494ZM8.454,27.835a6.747,6.747,0,0,0-3.591,2.141A.587.587,0,0,1,4,30.048a.682.682,0,0,1-.067-.919,6.66,6.66,0,0,1,1.425-1.315.511.511,0,0,0-.2-.921l-3.613-.43A.645.645,0,0,1,1,25.743a.622.622,0,0,1,.676-.576h.017l3.265.388c.15-.01.607.2.806-.24a.528.528,0,0,0-.087-.572A6.947,6.947,0,0,1,4.56,23.129a.676.676,0,0,1,.255-.882h0a.593.593,0,0,1,.826.273,6.988,6.988,0,0,0,3.065,2.917,5.675,5.675,0,0,0-.253,2.4Zm0,0" transform="translate(-0.001 -0.498)" fill="url(#linear-gradient)"/>
</svg>
