<svg id="house" xmlns="http://www.w3.org/2000/svg" width="28.382" height="26.623" viewBox="0 0 28.382 26.623">
  <path id="Caminho_65" data-name="Caminho 65" d="M4.5,27.1V14.324H6.325V27.1a.949.949,0,0,0,.913.982H23.665a.949.949,0,0,0,.913-.982V14.324H26.4V27.1a2.848,2.848,0,0,1-2.738,2.947H7.238A2.848,2.848,0,0,1,4.5,27.1ZM24.578,5.482v6.877L20.927,8.43V5.482A.949.949,0,0,1,21.84,4.5h1.825A.949.949,0,0,1,24.578,5.482Z" transform="translate(-1.261 -3.42)" fill="#313131" fill-rule="evenodd"/>
  <path id="Caminho_66" data-name="Caminho 66" d="M13.977,3.27a1.892,1.892,0,0,1,2.675,0L29.228,15.845a.947.947,0,1,1-1.34,1.34L15.315,4.608,2.74,17.183a.947.947,0,0,1-1.34-1.34Z" transform="translate(-1.123 -2.716)" fill="#313131" fill-rule="evenodd"/>
</svg>
