<svg xmlns="http://www.w3.org/2000/svg" width="177.146" height="176.192" viewBox="0 0 177.146 176.192">
  <g id="Grupo_171" data-name="Grupo 171" transform="translate(-376 -73.555)">
    <path id="Subtração_1" data-name="Subtração 1" d="M1061.049-1468.313H976.883a14.216,14.216,0,0,1-10.119-4.191,14.216,14.216,0,0,1-4.191-10.119v-84.166a14.216,14.216,0,0,1,4.191-10.119,14.216,14.216,0,0,1,10.119-4.191h84.165a14.217,14.217,0,0,1,10.119,4.191,14.216,14.216,0,0,1,4.192,10.119v84.166a14.216,14.216,0,0,1-4.192,10.119A14.218,14.218,0,0,1,1061.049-1468.313Zm-59.1-11.791h0l9.082,9.108,9.11-9.083-3.228,0,0-2.866h6.743a30.548,30.548,0,0,0,30.513-30.514,30.428,30.428,0,0,0-18.824-28.192,19.052,19.052,0,0,0,3.568-11.126c0-10.694-8.635-19.071-19.659-19.071h-2.346v-4.109h-11.737v4.109h-13.5c-4.812,0-7.922,3.571-7.922,9.1v70.711a9.106,9.106,0,0,0,9.1,9.1h12.622l0,2.849-3.52,0Z" transform="translate(-552.825 1655.154)" fill="#fff" stroke="rgba(0,0,0,0)" stroke-miterlimit="10" stroke-width="1"/>
    <g id="Grupo_5" data-name="Grupo 5" transform="translate(376 206.758)">
      <path id="Caminho_23" data-name="Caminho 23" d="M484.544,165.331a16.156,16.156,0,1,1-16.156,16.156A16.159,16.159,0,0,1,484.544,165.331Zm7.5,16.156a7.5,7.5,0,1,0-7.5,7.5A7.5,7.5,0,0,0,492.046,181.487Z" transform="translate(-323.554 -154.944)" fill="#fff"/>
      <path id="Caminho_24" data-name="Caminho 24" d="M468.8,169.226v-9.232h-8.655v9.232h-5.193v8.655h5.193v21.927H468.8V177.881h8.078v-8.655Z" transform="translate(-331.181 -157.974)" fill="#fff"/>
      <path id="Caminho_25" data-name="Caminho 25" d="M457.262,165.724v1.27a16.156,16.156,0,1,0,0,28.619v.693h8.657V165.724Zm-7.5,23.081a7.5,7.5,0,1,1,7.5-7.5A7.48,7.48,0,0,1,449.76,188.8Z" transform="translate(-343.3 -155.048)" fill="#fff"/>
      <path id="Caminho_26" data-name="Caminho 26" d="M436.879,165.147a16.1,16.1,0,0,0-7.5,1.847V166.3h-8.657v30.582h8.657V181.3a7.516,7.516,0,0,1,9.036-7.346l5.1-7.368,0-.011A15.967,15.967,0,0,0,436.879,165.147Z" transform="translate(-350.613 -155.048)" fill="#fff"/>
      <path id="Caminho_27" data-name="Caminho 27" d="M421.191,166.092v1.27a16.156,16.156,0,1,0,0,28.619v.693h8.655V166.092Zm-7.5,23.081a7.5,7.5,0,1,1,7.5-7.5A7.5,7.5,0,0,1,413.689,189.173Z" transform="translate(-363.776 -154.839)" fill="#fff"/>
      <path id="Caminho_28" data-name="Caminho 28" d="M392.445,168.8a16.079,16.079,0,0,0-7.79,2v-12.1H376V200.54h8.655v-1.425a16.156,16.156,0,1,0,7.79-30.311Zm0,23.658a7.5,7.5,0,1,1,7.5-7.5A7.5,7.5,0,0,1,392.445,192.462Z" transform="translate(-376 -158.705)" fill="#fff"/>
    </g>
  </g>
</svg>
