<svg xmlns="http://www.w3.org/2000/svg" width="18.047" height="18.046" viewBox="0 0 18.047 18.046">
  <g id="logout" transform="translate(0 -0.008)">
    <path id="Caminho_201" data-name="Caminho 201" d="M285.039,209.136H277.9a.564.564,0,1,1,0-1.128h7.143a.564.564,0,0,1,0,1.128Zm0,0" transform="translate(-267.557 -200.669)" fill="#2cbf88"/>
    <path id="Caminho_202" data-name="Caminho 202" d="M400.568,134.738a.564.564,0,0,1-.4-.963l2.421-2.421-2.421-2.421a.564.564,0,0,1,.8-.8l2.82,2.82a.564.564,0,0,1,0,.8l-2.82,2.82A.56.56,0,0,1,400.568,134.738Zm0,0" transform="translate(-385.905 -123.452)" fill="#2cbf88"/>
    <path id="Caminho_203" data-name="Caminho 203" d="M6.015,18.054a1.55,1.55,0,0,1-.466-.07L1.024,16.477A1.518,1.518,0,0,1,0,15.046V1.512A1.505,1.505,0,0,1,1.5.008a1.551,1.551,0,0,1,.466.07L6.5,1.585a1.518,1.518,0,0,1,1.024,1.43V16.55A1.505,1.505,0,0,1,6.015,18.054ZM1.5,1.136a.377.377,0,0,0-.376.376V15.046a.391.391,0,0,0,.261.362l4.5,1.5a.408.408,0,0,0,.123.017.377.377,0,0,0,.376-.376V3.015a.391.391,0,0,0-.261-.362l-4.5-1.5A.408.408,0,0,0,1.5,1.136Zm0,0" fill="#2cbf88"/>
    <path id="Caminho_204" data-name="Caminho 204" d="M37.195,6.023a.564.564,0,0,1-.564-.564V2.076a.941.941,0,0,0-.94-.94H27.232a.564.564,0,1,1,0-1.128h8.459a2.069,2.069,0,0,1,2.068,2.068V5.459A.564.564,0,0,1,37.195,6.023Zm0,0" transform="translate(-25.728 0)" fill="#2cbf88"/>
    <path id="Caminho_205" data-name="Caminho 205" d="M184.9,283.355H181.9a.564.564,0,1,1,0-1.128H184.9a.941.941,0,0,0,.94-.94V277.9a.564.564,0,0,1,1.128,0v3.384A2.069,2.069,0,0,1,184.9,283.355Zm0,0" transform="translate(-174.941 -267.557)" fill="#2cbf88"/>
  </g>
</svg>
