<svg xmlns="http://www.w3.org/2000/svg" width="16.325" height="16.16" viewBox="0 0 16.325 16.16">
  <g id="pencil-square" transform="translate(-2.25 -1.125)">
    <path id="Caminho_370" data-name="Caminho 370" d="M21.82,2.73a.557.557,0,0,1,0,.787L20.658,4.68,18.429,2.451l1.163-1.164a.557.557,0,0,1,.788,0L21.82,2.729ZM19.87,5.467,17.641,3.238l-7.593,7.595a.557.557,0,0,0-.135.218l-.9,2.691a.279.279,0,0,0,.352.352l2.691-.9a.557.557,0,0,0,.218-.134L19.87,5.468Z" transform="translate(-3.407)" fill="#484747"/>
    <path id="Caminho_371" data-name="Caminho 371" d="M2.25,16.181a1.672,1.672,0,0,0,1.672,1.672h12.26a1.672,1.672,0,0,0,1.672-1.672V9.494a.557.557,0,1,0-1.115,0v6.687a.557.557,0,0,1-.557.557H3.922a.557.557,0,0,1-.557-.557V3.922a.557.557,0,0,1,.557-.557h7.244a.557.557,0,1,0,0-1.115H3.922A1.672,1.672,0,0,0,2.25,3.922Z" transform="translate(0 -0.568)" fill="#484747" fill-rule="evenodd"/>
  </g>
</svg>
