<svg id="person" xmlns="http://www.w3.org/2000/svg" width="21.173" height="21.172" viewBox="0 0 21.173 21.172">
  <path id="Caminho_60" data-name="Caminho 60" d="M23.908,25.672a1.728,1.728,0,0,0,1.764-1.764c0-1.764-1.764-7.057-10.586-7.057S4.5,22.144,4.5,23.908a1.728,1.728,0,0,0,1.764,1.764ZM6.273,24.007v0Zm.03-.1H23.869l.025,0,.014,0a4.711,4.711,0,0,0-1.468-2.936c-1.15-1.15-3.315-2.349-7.354-2.349s-6.2,1.2-7.354,2.35A4.724,4.724,0,0,0,6.264,23.9Zm17.6.1v0ZM15.086,13.322a3.529,3.529,0,1,0-3.529-3.529A3.529,3.529,0,0,0,15.086,13.322Zm5.293-3.529A5.293,5.293,0,1,1,15.086,4.5a5.293,5.293,0,0,1,5.293,5.293Z" transform="translate(-4.5 -4.5)" fill="#313131" fill-rule="evenodd"/>
</svg>
