<svg id="person" xmlns="http://www.w3.org/2000/svg" width="23.474" height="23.473" viewBox="0 0 23.474 23.473">
  <path id="Caminho_60" data-name="Caminho 60" d="M26.017,27.973a1.916,1.916,0,0,0,1.956-1.956c0-1.956-1.956-7.824-11.737-7.824S4.5,24.061,4.5,26.017a1.916,1.916,0,0,0,1.956,1.956ZM6.466,26.127v0Zm.033-.11H25.974l.028,0,.016,0a5.223,5.223,0,0,0-1.628-3.255c-1.275-1.275-3.676-2.6-8.153-2.6s-6.878,1.33-8.153,2.606a5.238,5.238,0,0,0-1.627,3.255Zm19.511.11v0ZM16.237,14.281a3.912,3.912,0,1,0-3.912-3.912A3.912,3.912,0,0,0,16.237,14.281Zm5.868-3.912A5.868,5.868,0,1,1,16.237,4.5a5.868,5.868,0,0,1,5.868,5.868Z" transform="translate(-4.5 -4.5)" fill="#2cbf88" fill-rule="evenodd"/>
</svg>
