<svg id="placeholder" xmlns="http://www.w3.org/2000/svg" width="16.381" height="23.297" viewBox="0 0 16.381 23.297">
  <g id="Grupo_131" data-name="Grupo 131" transform="translate(0)">
    <g id="Grupo_130" data-name="Grupo 130">
      <path id="Caminho_133" data-name="Caminho 133" d="M84.19,0a8.192,8.192,0,0,0-6.968,12.5l6.5,10.477a.683.683,0,0,0,.58.323h.005a.682.682,0,0,0,.58-.332l6.336-10.579A8.192,8.192,0,0,0,84.19,0Zm5.864,11.686L84.294,21.3l-5.911-9.525a6.83,6.83,0,1,1,11.671-.092Z" transform="translate(-76 0)" fill="#313131"/>
    </g>
  </g>
  <g id="Grupo_133" data-name="Grupo 133" transform="translate(4.095 4.095)">
    <g id="Grupo_132" data-name="Grupo 132">
      <path id="Caminho_134" data-name="Caminho 134" d="M170.1,90a4.1,4.1,0,1,0,4.1,4.1A4.1,4.1,0,0,0,170.1,90Zm0,6.834A2.739,2.739,0,1,1,172.83,94.1,2.741,2.741,0,0,1,170.1,96.834Z" transform="translate(-166 -90)" fill="#313131"/>
    </g>
  </g>
</svg>
