<svg id="placeholder" xmlns="http://www.w3.org/2000/svg" width="43.073" height="61.259" viewBox="0 0 43.073 61.259">
  <path id="Caminho_52" data-name="Caminho 52" d="M97.537,0A21.553,21.553,0,0,0,76,21.537a21.237,21.237,0,0,0,3.231,11.307L96.077,60.412a1.7,1.7,0,0,0,1.221.826,1.787,1.787,0,0,0,1.831-.861l16.894-27.82a21.24,21.24,0,0,0,3.051-11.02A21.553,21.553,0,0,0,97.537,0Zm0,32.3A10.768,10.768,0,1,1,108.3,21.537,10.754,10.754,0,0,1,97.537,32.3Z" transform="translate(-76)" fill="#0bd5a0"/>
  <path id="Caminho_53" data-name="Caminho 53" d="M256,0V10.768A10.768,10.768,0,0,1,256,32.3V61.258a1.777,1.777,0,0,0,1.591-.882l16.894-27.82a21.24,21.24,0,0,0,3.051-11.02A21.553,21.553,0,0,0,256,0Z" transform="translate(-234.463)" fill="#00bf8d"/>
</svg>
