<svg id="search" xmlns="http://www.w3.org/2000/svg" width="15.703" height="15.148" viewBox="0 0 15.703 15.148">
  <path id="Caminho_54" data-name="Caminho 54" d="M23.125,23.113a1.007,1.007,0,0,1,1.389,0l3.778,3.645a.923.923,0,0,1,0,1.339,1.007,1.007,0,0,1-1.388,0l-3.778-3.645a.923.923,0,0,1,0-1.34Z" transform="translate(-12.877 -13.226)" fill="#2cbf88" fill-rule="evenodd"/>
  <path id="Caminho_55" data-name="Caminho 55" d="M6.379,11.361a5.3,5.3,0,0,0,5.4-5.207A5.3,5.3,0,0,0,6.379.947a5.3,5.3,0,0,0-5.4,5.207A5.3,5.3,0,0,0,6.379,11.361Zm6.379-5.207a6.27,6.27,0,0,1-6.379,6.154A6.27,6.27,0,0,1,0,6.154,6.27,6.27,0,0,1,6.379,0a6.27,6.27,0,0,1,6.379,6.154Z" transform="translate(0 0)" fill="#2cbf88" fill-rule="evenodd"/>
</svg>
