<svg xmlns="http://www.w3.org/2000/svg" width="27.93" height="23.933" viewBox="0 0 27.93 23.933">
  <g id="suit-heart" transform="translate(0 0)">
    <path id="Caminho_62" data-name="Caminho 62" d="M13.965,11.39l1.56-3.123a10.232,10.232,0,0,1,2.011-2.784A4.9,4.9,0,0,1,20.948,4a5.168,5.168,0,0,1,5.237,5.1c0,2.114-.967,3.606-3.261,5.883-.588.583-1.258,1.213-2,1.908a91.945,91.945,0,0,0-6.958,7.094,91.8,91.8,0,0,0-6.959-7.094c-.742-.7-1.414-1.327-2-1.908-2.293-2.277-3.26-3.769-3.26-5.883A5.168,5.168,0,0,1,6.983,4a4.9,4.9,0,0,1,3.411,1.487A10.232,10.232,0,0,1,12.4,8.267Zm.684,14.475a.9.9,0,0,1-1.369,0,85.017,85.017,0,0,0-7.407-7.647C2.269,14.833,0,12.7,0,9.093A6.913,6.913,0,0,1,6.983,2.25a7.448,7.448,0,0,1,5.942,3.505,13.209,13.209,0,0,1,1.04,1.732,13.18,13.18,0,0,1,1.04-1.732A7.442,7.442,0,0,1,20.948,2.25,6.913,6.913,0,0,1,27.93,9.093c0,3.612-2.269,5.74-5.874,9.125a85.928,85.928,0,0,0-7.407,7.646Z" transform="translate(0 -2.25)" fill="#313131" fill-rule="evenodd"/>
  </g>
</svg>
