<svg xmlns="http://www.w3.org/2000/svg" width="19.85" height="19.85" viewBox="0 0 19.85 19.85">
  <path id="target" d="M20.8,13.918A7.944,7.944,0,0,1,13.918,20.8V22.85H11.933V20.8a7.944,7.944,0,0,1-6.886-6.886H3V11.933H5.047a7.944,7.944,0,0,1,6.886-6.886V3h1.985V5.047A7.944,7.944,0,0,1,20.8,11.933H22.85v1.985ZM12.925,18.88A5.955,5.955,0,1,0,6.97,12.925,5.955,5.955,0,0,0,12.925,18.88Zm0-2.978a2.978,2.978,0,1,0-2.978-2.978A2.978,2.978,0,0,0,12.925,15.9Z" transform="translate(-3 -3)" fill="#2cbf88"/>
</svg>
