<svg xmlns="http://www.w3.org/2000/svg" width="30.307" height="30.305" viewBox="0 0 30.307 30.305">
  <g id="telephone-fill" transform="translate(-0.321 -0.375)">
    <path id="Caminho_39" data-name="Caminho 39" d="M4.512,2.045A3.136,3.136,0,0,1,9.2,2.337L12.425,6.48a3.127,3.127,0,0,1,.567,2.683L12.01,13.1a1.219,1.219,0,0,0,.32,1.158l4.416,4.414a1.219,1.219,0,0,0,1.158.32l3.933-.983a3.136,3.136,0,0,1,2.685.567L28.665,21.8a3.135,3.135,0,0,1,.293,4.692l-1.86,1.86a4.994,4.994,0,0,1-5.169,1.262A33.484,33.484,0,0,1,9.335,21.667,33.484,33.484,0,0,1,1.391,9.072,5,5,0,0,1,2.653,3.9l1.86-1.857Z" transform="translate(0 0)" fill="none" stroke="#2cbf88" stroke-width="1.5" fill-rule="evenodd"/>
  </g>
</svg>
